SplineFontDB: 3.2
FontName: Square-Bold
FullName: Square Bold
FamilyName: Square Bold
Weight: Bold
Copyright: Copyright (c) 2020, retr0
UComments: "2020-10-21: Created with FontForge (http://fontforge.org)"
Version: 001.000
ItalicAngle: 0
UnderlinePosition: -100
UnderlineWidth: 50
Ascent: 800
Descent: 200
InvalidEm: 0
LayerCount: 2
Layer: 0 0 "Back" 1
Layer: 1 0 "Fore" 0
XUID: [1021 774 -246617221 31412]
StyleMap: 0x0000
FSType: 0
OS2Version: 0
OS2_WeightWidthSlopeOnly: 0
OS2_UseTypoMetrics: 1
CreationTime: 1603300061
ModificationTime: 1605091204
PfmFamily: 33
TTFWeight: 700
TTFWidth: 5
LineGap: 90
VLineGap: 0
OS2TypoAscent: 0
OS2TypoAOffset: 1
OS2TypoDescent: 0
OS2TypoDOffset: 1
OS2TypoLinegap: 90
OS2WinAscent: 0
OS2WinAOffset: 1
OS2WinDescent: 0
OS2WinDOffset: 1
HheadAscent: 0
HheadAOffset: 1
HheadDescent: 0
HheadDOffset: 1
OS2Vendor: 'PfEd'
Lookup: 258 0 0 "j" { "before j symbols 2" [150,15,2] "before j uppercase" [150,15,2] "before j lowercase" [150,15,2] "before j symbols 1" [150,15,2] } ['kern' ('DFLT' <'dflt' > 'latn' <'dflt' > ) ]
Lookup: 258 0 0 "eth" { "eth after symbols 2" [150,15,2] "eth after symbols 1" [150,15,2] "eth after lowercase" [150,15,2] "eth after uppercase" [150,15,2] } ['kern' ('DFLT' <'dflt' > 'latn' <'dflt' > ) ]
Lookup: 258 0 0 "V" { "before V symbols 2" [150,15,2] "after V symbols 2" [150,15,2] "before V symbols" [150,15,2] "V after symbols" [150,15,2] "before V lowercase" [150,15,2] "V after lowercase" [150,15,6] } ['kern' ('DFLT' <'dflt' > 'latn' <'dflt' > ) ]
MarkAttachClasses: 1
MarkAttachSets: 1
"" 0 
DEI: 91125
LangName: 1033 "" "" "" "" "" "" "" "" "" "" "" "" "" "" "" "" "Square"
Encoding: ISO8859-1
UnicodeInterp: none
NameList: AGL For New Fonts
DisplaySize: -48
AntiAlias: 1
FitToEm: 0
WinInfo: 0 39 14
BeginPrivate: 0
EndPrivate
TeXData: 1 0 0 209715 104857 69905 419430 1048576 69905 783286 444596 497025 792723 393216 433062 380633 303038 157286 324010 404750 52429 2506097 1059062 262144
BeginChars: 256 190

StartChar: A
Encoding: 65 65 0
Width: 500
Flags: MW
LayerCount: 2
Fore
SplineSet
150 300 m 1
 150 0 l 1
 50 0 l 1
 50 600 l 1
 450 600 l 1
 450 0 l 1
 350 0 l 1
 350 300 l 1
 150 300 l 1
150 500 m 1
 150 400 l 1
 350 400 l 1
 350 500 l 1
 150 500 l 1
EndSplineSet
Validated: 1
EndChar

StartChar: B
Encoding: 66 66 1
Width: 500
Flags: MW
LayerCount: 2
Fore
SplineSet
350 0 m 1
 50 0 l 1
 50 600 l 1
 350 600 l 1
 350 400 l 1
 450 400 l 1
 450 0 l 1
 350 0 l 1
150 500 m 1
 150 400 l 1
 250 400 l 1
 250 500 l 1
 150 500 l 1
150 300 m 1
 150 100 l 1
 350 100 l 1
 350 300 l 1
 150 300 l 1
EndSplineSet
Validated: 1
EndChar

StartChar: C
Encoding: 67 67 2
Width: 500
Flags: MW
LayerCount: 2
Fore
SplineSet
50 600 m 1
 150 600 l 1
 450 600 l 1
 450 500 l 1
 150 500 l 1
 150 100 l 1
 450 100 l 1
 450 0 l 1
 150 0 l 1
 50 0 l 1
 50 100 l 1
 50 500 l 1
 50 600 l 1
EndSplineSet
Validated: 1
EndChar

StartChar: D
Encoding: 68 68 3
Width: 600
Flags: MW
LayerCount: 2
Fore
SplineSet
250 600 m 1
 550 600 l 1
 550 0 l 1
 50 0 l 1
 50 100 l 1
 150 100 l 1
 150 500 l 1
 50 500 l 1
 50 600 l 1
 250 600 l 1
450 100 m 1
 450 500 l 1
 250 500 l 1
 250 100 l 1
 450 100 l 1
EndSplineSet
Validated: 1
EndChar

StartChar: E
Encoding: 69 69 4
Width: 500
Flags: MW
LayerCount: 2
Fore
SplineSet
450 0 m 1
 150 0 l 1
 50 0 l 1
 50 100 l 1
 50 300 l 1
 50 400 l 1
 50 500 l 1
 50 600 l 1
 150 600 l 1
 450 600 l 1
 450 500 l 1
 150 500 l 1
 150 400 l 1
 450 400 l 1
 450 300 l 1
 150 300 l 1
 150 100 l 1
 450 100 l 1
 450 0 l 1
EndSplineSet
Validated: 1
EndChar

StartChar: F
Encoding: 70 70 5
Width: 500
Flags: MW
LayerCount: 2
Fore
SplineSet
50 600 m 1
 150 600 l 1
 450 600 l 1
 450 500 l 1
 150 500 l 1
 150 400 l 1
 450 400 l 1
 450 300 l 1
 150 300 l 1
 150 0 l 1
 50 0 l 1
 50 300 l 1
 50 400 l 1
 50 500 l 1
 50 600 l 1
EndSplineSet
Validated: 1
EndChar

StartChar: G
Encoding: 71 71 6
Width: 500
Flags: MW
LayerCount: 2
Fore
SplineSet
350 0 m 1
 150 0 l 1
 50 0 l 1
 50 100 l 1
 50 500 l 1
 50 600 l 1
 150 600 l 1
 450 600 l 1
 450 500 l 1
 150 500 l 1
 150 100 l 1
 350 100 l 1
 350 300 l 1
 250 300 l 1
 250 400 l 1
 350 400 l 1
 450 400 l 1
 450 300 l 1
 450 100 l 1
 450 0 l 1
 350 0 l 1
EndSplineSet
Validated: 1
EndChar

StartChar: H
Encoding: 72 72 7
Width: 500
Flags: MW
LayerCount: 2
Fore
SplineSet
350 600 m 1
 450 600 l 1
 450 400 l 1
 450 300 l 1
 450 0 l 1
 350 0 l 1
 350 300 l 1
 150 300 l 1
 150 0 l 1
 50 0 l 1
 50 300 l 1
 50 400 l 1
 50 600 l 1
 150 600 l 1
 150 400 l 1
 350 400 l 1
 350 600 l 1
EndSplineSet
Validated: 1
EndChar

StartChar: I
Encoding: 73 73 8
Width: 400
Flags: MW
LayerCount: 2
Fore
SplineSet
350 500 m 1
 250 500 l 1
 250 100 l 1
 350 100 l 1
 350 0 l 1
 250 0 l 1
 150 0 l 1
 50 0 l 1
 50 100 l 1
 150 100 l 1
 150 500 l 1
 50 500 l 1
 50 600 l 1
 150 600 l 1
 250 600 l 1
 350 600 l 1
 350 500 l 1
EndSplineSet
Validated: 1
EndChar

StartChar: J
Encoding: 74 74 9
Width: 500
Flags: MW
LayerCount: 2
Fore
SplineSet
450 0 m 1
 350 0 l 1
 50 0 l 1
 50 100 l 1
 50 200 l 1
 150 200 l 1
 150 100 l 1
 350 100 l 1
 350 600 l 1
 450 600 l 1
 450 100 l 1
 450 0 l 1
EndSplineSet
Validated: 1
EndChar

StartChar: K
Encoding: 75 75 10
Width: 500
Flags: MW
LayerCount: 2
Fore
SplineSet
350 600 m 1
 350 400 l 1
 450 400 l 1
 450 300 l 1
 450 0 l 1
 350 0 l 1
 350 300 l 1
 250 300 l 1
 150 300 l 1
 150 0 l 1
 50 0 l 1
 50 300 l 1
 50 400 l 1
 50 600 l 1
 150 600 l 1
 150 400 l 1
 250 400 l 1
 250 600 l 1
 350 600 l 1
EndSplineSet
Validated: 1
EndChar

StartChar: L
Encoding: 76 76 11
Width: 500
Flags: MW
LayerCount: 2
Fore
SplineSet
150 600 m 1
 150 100 l 1
 450 100 l 1
 450 0 l 1
 150 0 l 1
 50 0 l 1
 50 100 l 1
 50 600 l 1
 150 600 l 1
EndSplineSet
Validated: 1
EndChar

StartChar: M
Encoding: 77 77 12
Width: 600
Flags: MW
LayerCount: 2
Fore
SplineSet
350 600 m 1
 450 600 l 1
 550 600 l 1
 550 500 l 1
 550 0 l 1
 450 0 l 1
 450 500 l 1
 350 500 l 1
 350 0 l 1
 250 0 l 1
 250 500 l 1
 150 500 l 1
 150 0 l 1
 50 0 l 1
 50 500 l 1
 50 600 l 1
 150 600 l 1
 250 600 l 1
 350 600 l 1
EndSplineSet
Validated: 1
EndChar

StartChar: N
Encoding: 78 78 13
Width: 500
Flags: MW
LayerCount: 2
Fore
SplineSet
350 600 m 1
 450 600 l 1
 450 0 l 1
 350 0 l 1
 350 300 l 1
 150 433.330078125 l 1
 150 0 l 1
 50 0 l 1
 50 500 l 1
 50 600 l 1
 150 600 l 1
 150 533.330078125 l 1
 350 400 l 1
 350 600 l 1
EndSplineSet
Validated: 1
EndChar

StartChar: O
Encoding: 79 79 14
Width: 500
Flags: MW
LayerCount: 2
Fore
SplineSet
350 0 m 1
 50 0 l 1
 50 600 l 1
 450 600 l 1
 450 0 l 1
 350 0 l 1
150 500 m 1
 150 100 l 1
 350 100 l 1
 350 500 l 1
 150 500 l 1
EndSplineSet
Validated: 1
EndChar

StartChar: P
Encoding: 80 80 15
Width: 500
Flags: MW
LayerCount: 2
Fore
SplineSet
150 600 m 1
 450 600 l 1
 450 300 l 1
 150 300 l 1
 150 0 l 1
 50 0 l 1
 50 600 l 1
 150 600 l 1
350 400 m 1
 350 500 l 1
 150 500 l 1
 150 400 l 1
 350 400 l 1
EndSplineSet
Validated: 1
EndChar

StartChar: Q
Encoding: 81 81 16
Width: 520
Flags: MW
LayerCount: 2
Fore
SplineSet
449.389648438 100 m 1
 449.389648438 70.7099609375 l 1
 520 0 l 1
 449.389648438 -70.7099609375 l 1
 378.790039062 0 l 1
 50 0 l 1
 50 600 l 1
 449.389648438 600 l 1
 449.389648438 100 l 1
149.83984375 100 m 1
 349.540039062 100 l 1
 349.540039062 500 l 1
 149.83984375 500 l 1
 149.83984375 100 l 1
EndSplineSet
Validated: 1
EndChar

StartChar: R
Encoding: 82 82 17
Width: 500
Flags: MW
LayerCount: 2
Fore
SplineSet
150 300 m 1
 150 0 l 1
 50 0 l 1
 50 600 l 1
 350 600 l 1
 350 400 l 1
 450 400 l 1
 450 0 l 1
 350 0 l 1
 350 300 l 1
 150 300 l 1
150 500 m 1
 150 400 l 1
 250 400 l 1
 250 500 l 1
 150 500 l 1
EndSplineSet
Validated: 1
EndChar

StartChar: S
Encoding: 83 83 18
Width: 500
Flags: MW
LayerCount: 2
Fore
SplineSet
50 600 m 1
 150 600 l 1
 450 600 l 1
 450 500 l 1
 150 500 l 1
 150 400 l 1
 350 400 l 1
 450 400 l 1
 450 300 l 1
 450 100 l 1
 450 0 l 1
 350 0 l 1
 50 0 l 1
 50 100 l 1
 350 100 l 1
 350 300 l 1
 150 300 l 1
 50 300 l 1
 50 400 l 1
 50 500 l 1
 50 600 l 1
EndSplineSet
Validated: 1
EndChar

StartChar: T
Encoding: 84 84 19
Width: 500
Flags: MW
LayerCount: 2
Fore
SplineSet
200 600 m 1
 300 600 l 1
 450 600 l 1
 450 500 l 1
 300 500 l 1
 300 0 l 1
 200 0 l 1
 200 500 l 1
 50 500 l 1
 50 600 l 1
 200 600 l 1
EndSplineSet
Validated: 1
EndChar

StartChar: U
Encoding: 85 85 20
Width: 500
Flags: MW
LayerCount: 2
Fore
SplineSet
350 100 m 1
 350 600 l 1
 450 600 l 1
 450 100 l 1
 450 0 l 1
 350 0 l 1
 150 0 l 1
 50 0 l 1
 50 100 l 1
 50 600 l 1
 150 600 l 1
 150 100 l 1
 350 100 l 1
EndSplineSet
Validated: 1
EndChar

StartChar: V
Encoding: 86 86 21
Width: 500
Flags: MW
LayerCount: 2
Fore
SplineSet
250 120 m 1
 350 600 l 1
 450 600 l 1
 325 0 l 1
 275 0 l 1
 225 0 l 1
 175 0 l 1
 50 600 l 1
 150 600 l 1
 250 120 l 1
EndSplineSet
Validated: 1
EndChar

StartChar: W
Encoding: 87 87 22
Width: 600
Flags: MW
LayerCount: 2
Fore
SplineSet
450 100 m 1
 450 600 l 1
 550 600 l 1
 550 100 l 1
 550 0 l 1
 450 0 l 1
 350 0 l 1
 250 0 l 1
 150 0 l 1
 50 0 l 1
 50 100 l 1
 50 600 l 1
 150 600 l 1
 150 100 l 1
 250 100 l 1
 250 600 l 1
 350 600 l 1
 350 100 l 1
 450 100 l 1
EndSplineSet
Validated: 1
EndChar

StartChar: X
Encoding: 88 88 23
Width: 500
Flags: MW
LayerCount: 2
Fore
SplineSet
350 600 m 1
 450 600 l 1
 300 300 l 1
 450 0 l 1
 350 0 l 1
 250 200 l 1
 150 0 l 1
 50 0 l 1
 200 300 l 1
 50 600 l 1
 150 600 l 1
 250 400 l 1
 350 600 l 1
EndSplineSet
Validated: 1
EndChar

StartChar: Y
Encoding: 89 89 24
Width: 500
Flags: MW
LayerCount: 2
Fore
SplineSet
350 400 m 1
 350 600 l 1
 450 600 l 1
 450 400 l 1
 450 300 l 1
 350 300 l 1
 300 300 l 1
 300 0 l 1
 200 0 l 1
 200 300 l 1
 150 300 l 1
 50 300 l 1
 50 400 l 1
 50 600 l 1
 150 600 l 1
 150 400 l 1
 200 400 l 1
 300 400 l 1
 350 400 l 1
EndSplineSet
Validated: 1
EndChar

StartChar: Z
Encoding: 90 90 25
Width: 500
Flags: MW
LayerCount: 2
Fore
SplineSet
450 600 m 1
 400 500 l 1
 200 100 l 1
 450 100 l 1
 450 0 l 1
 150 0 l 1
 50 0 l 1
 100 100 l 1
 300 500 l 1
 50 500 l 1
 50 600 l 1
 350 600 l 1
 450 600 l 1
EndSplineSet
Validated: 1
EndChar

StartChar: a
Encoding: 97 97 27
Width: 500
Flags: MW
LayerCount: 2
Fore
SplineSet
50 400 m 1
 450 400 l 1
 450 0 l 1
 50 0 l 1
 50 250 l 1
 350 250 l 1
 350 300 l 1
 50 300 l 1
 50 400 l 1
350 100 m 1
 350 150 l 1
 150 150 l 1
 150 100 l 1
 350 100 l 1
EndSplineSet
Validated: 1
EndChar

StartChar: b
Encoding: 98 98 28
Width: 500
Flags: MW
LayerCount: 2
Fore
SplineSet
350 0 m 1
 50 0 l 1
 50 600 l 1
 150 600 l 1
 150 400 l 1
 450 400 l 1
 450 0 l 1
 350 0 l 1
150 300 m 1
 150 100 l 1
 350 100 l 1
 350 300 l 1
 150 300 l 1
EndSplineSet
Validated: 1
EndChar

StartChar: c
Encoding: 99 99 29
Width: 500
Flags: MW
LayerCount: 2
Fore
SplineSet
50 400 m 1
 150 400 l 1
 450 400 l 1
 450 300 l 1
 150 300 l 1
 150 100 l 1
 450 100 l 1
 450 0 l 1
 150 0 l 1
 50 0 l 1
 50 100 l 1
 50 300 l 1
 50 400 l 1
EndSplineSet
Validated: 1
EndChar

StartChar: d
Encoding: 100 100 30
Width: 500
Flags: MW
LayerCount: 2
Fore
SplineSet
350 400 m 1
 350 600 l 1
 450 600 l 1
 450 0 l 1
 50 0 l 1
 50 400 l 1
 350 400 l 1
350 100 m 1
 350 300 l 1
 150 300 l 1
 150 100 l 1
 350 100 l 1
EndSplineSet
Validated: 1
EndChar

StartChar: e
Encoding: 101 101 31
Width: 500
Flags: MW
LayerCount: 2
Fore
SplineSet
150 400 m 1
 450 400 l 1
 450 150 l 1
 150 150 l 1
 150 100 l 1
 450 100 l 1
 450 0 l 1
 50 0 l 1
 50 400 l 1
 150 400 l 1
350 250 m 1
 350 300 l 1
 150 300 l 1
 150 250 l 1
 350 250 l 1
EndSplineSet
Validated: 1
EndChar

StartChar: f
Encoding: 102 102 32
Width: 500
Flags: MW
LayerCount: 2
Fore
SplineSet
200 600 m 1
 300 600 l 1
 450 600 l 1
 450 500 l 1
 300 500 l 1
 300 400 l 1
 450 400 l 1
 450 300 l 1
 300 300 l 1
 300 0 l 1
 200 0 l 1
 200 300 l 1
 50 300 l 1
 50 400 l 1
 200 400 l 1
 200 500 l 1
 200 600 l 1
EndSplineSet
Validated: 1
EndChar

StartChar: g
Encoding: 103 103 33
Width: 500
Flags: MW
LayerCount: 2
Fore
SplineSet
150 400 m 1
 450 400 l 1
 450 -200 l 1
 50 -200 l 1
 50 -100 l 1
 350 -100 l 1
 350 0 l 1
 50 0 l 1
 50 400 l 1
 150 400 l 1
350 100 m 1
 350 300 l 1
 150 300 l 1
 150 100 l 1
 350 100 l 1
EndSplineSet
Validated: 1
EndChar

StartChar: h
Encoding: 104 104 34
Width: 500
Flags: MW
LayerCount: 2
Fore
SplineSet
350 400 m 1
 450 400 l 1
 450 300 l 1
 450 0 l 1
 350 0 l 1
 350 300 l 1
 150 300 l 1
 150 0 l 1
 50 0 l 1
 50 300 l 1
 50 400 l 1
 50 600 l 1
 150 600 l 1
 150 400 l 1
 350 400 l 1
EndSplineSet
Validated: 1
EndChar

StartChar: i
Encoding: 105 105 35
Width: 200
Flags: MW
LayerCount: 2
Fore
SplineSet
50 0 m 1
 50 400 l 1
 150 400 l 1
 150 0 l 1
 50 0 l 1
50 500 m 1
 50 600 l 1
 150 600 l 1
 150 500 l 1
 50 500 l 1
EndSplineSet
Validated: 1
EndChar

StartChar: j
Encoding: 106 106 36
Width: 300
Flags: MW
LayerCount: 2
Fore
SplineSet
150 -100 m 1
 150 400 l 1
 250 400 l 1
 250 -100 l 1
 250 -200 l 1
 150 -200 l 1
 50 -200 l 1
 50 -100 l 1
 150 -100 l 1
150 500 m 1
 150 600 l 1
 250 600 l 1
 250 500 l 1
 150 500 l 1
EndSplineSet
Validated: 1
EndChar

StartChar: k
Encoding: 107 107 37
Width: 500
Flags: MW
LayerCount: 2
Fore
SplineSet
350 500 m 1
 350 400 l 1
 450 400 l 1
 450 300 l 1
 450 0 l 1
 350 0 l 1
 350 300 l 1
 150 300 l 1
 150 0 l 1
 50 0 l 1
 50 300 l 1
 50 400 l 1
 50 600 l 1
 150 600 l 1
 150 400 l 1
 250 400 l 1
 250 500 l 1
 350 500 l 1
EndSplineSet
Validated: 1
EndChar

StartChar: l
Encoding: 108 108 38
Width: 200
Flags: MW
LayerCount: 2
Fore
SplineSet
50 0 m 1
 50 600 l 1
 150 600 l 1
 150 0 l 1
 50 0 l 1
EndSplineSet
Validated: 1
EndChar

StartChar: m
Encoding: 109 109 39
Width: 600
Flags: MW
LayerCount: 2
Fore
SplineSet
350 400 m 1
 450 400 l 1
 550 400 l 1
 550 300 l 1
 550 0 l 1
 450 0 l 1
 450 300 l 1
 350 300 l 1
 350 0 l 1
 250 0 l 1
 250 300 l 1
 150 300 l 1
 150 0 l 1
 50 0 l 1
 50 300 l 1
 50 400 l 1
 150 400 l 1
 250 400 l 1
 350 400 l 1
EndSplineSet
Validated: 1
EndChar

StartChar: n
Encoding: 110 110 40
Width: 500
Flags: MW
LayerCount: 2
Fore
SplineSet
150 400 m 1
 350 400 l 1
 450 400 l 1
 450 300 l 1
 450 0 l 1
 350 0 l 1
 350 300 l 1
 150 300 l 1
 150 0 l 1
 50 0 l 1
 50 300 l 1
 50 400 l 1
 150 400 l 1
EndSplineSet
Validated: 1
EndChar

StartChar: o
Encoding: 111 111 41
Width: 500
Flags: MW
LayerCount: 2
Fore
SplineSet
150 400 m 1
 450 400 l 1
 450 0 l 1
 50 0 l 1
 50 400 l 1
 150 400 l 1
350 100 m 1
 350 300 l 1
 150 300 l 1
 150 100 l 1
 350 100 l 1
EndSplineSet
Validated: 1
EndChar

StartChar: p
Encoding: 112 112 42
Width: 500
Flags: MW
LayerCount: 2
Fore
SplineSet
150 400 m 1
 450 400 l 1
 450 0 l 1
 150 0 l 1
 150 -200 l 1
 50 -200 l 1
 50 400 l 1
 150 400 l 1
350 100 m 1
 350 300 l 1
 150 300 l 1
 150 100 l 1
 350 100 l 1
EndSplineSet
Validated: 1
EndChar

StartChar: q
Encoding: 113 113 43
Width: 500
Flags: MW
LayerCount: 2
Fore
SplineSet
150 400 m 1
 450 400 l 1
 450 -200 l 1
 350 -200 l 1
 350 0 l 1
 50 0 l 1
 50 400 l 1
 150 400 l 1
350 100 m 1
 350 300 l 1
 150 300 l 1
 150 100 l 1
 350 100 l 1
EndSplineSet
Validated: 1
EndChar

StartChar: r
Encoding: 114 114 44
Width: 500
Flags: MW
LayerCount: 2
Fore
SplineSet
150 300 m 1
 150 0 l 1
 50 0 l 1
 50 300 l 1
 50 400 l 1
 150 400 l 1
 450 400 l 1
 450 300 l 1
 150 300 l 1
EndSplineSet
Validated: 1
EndChar

StartChar: s
Encoding: 115 115 45
Width: 500
Flags: MW
LayerCount: 2
Fore
SplineSet
50 400 m 1
 150 400 l 1
 450 400 l 1
 450 300 l 1
 150 300 l 1
 150 250 l 1
 350 250 l 1
 450 250 l 1
 450 150 l 1
 450 100 l 1
 450 0 l 1
 350 0 l 1
 50 0 l 1
 50 100 l 1
 350 100 l 1
 350 150 l 1
 150 150 l 1
 50 150 l 1
 50 250 l 1
 50 300 l 1
 50 400 l 1
EndSplineSet
Validated: 1
EndChar

StartChar: t
Encoding: 116 116 46
Width: 500
Flags: MW
LayerCount: 2
Fore
SplineSet
300 600 m 1
 300 400 l 1
 450 400 l 1
 450 300 l 1
 300 300 l 1
 300 0 l 1
 200 0 l 1
 200 300 l 1
 50 300 l 1
 50 400 l 1
 200 400 l 1
 200 600 l 1
 300 600 l 1
EndSplineSet
Validated: 1
EndChar

StartChar: u
Encoding: 117 117 47
Width: 500
Flags: MW
LayerCount: 2
Fore
SplineSet
350 100 m 1
 350 400 l 1
 450 400 l 1
 450 100 l 1
 450 0 l 1
 350 0 l 1
 150 0 l 1
 50 0 l 1
 50 100 l 1
 50 400 l 1
 150 400 l 1
 150 100 l 1
 350 100 l 1
EndSplineSet
Validated: 1
EndChar

StartChar: v
Encoding: 118 118 48
Width: 500
Flags: MW
LayerCount: 2
Fore
SplineSet
50 400 m 1
 175 400 l 1
 250 125 l 1
 325 400 l 1
 450 400 l 1
 312.5 0 l 1
 187.5 0 l 1
 50 400 l 1
EndSplineSet
Validated: 1
EndChar

StartChar: w
Encoding: 119 119 49
Width: 600
Flags: MW
LayerCount: 2
Fore
SplineSet
450 100 m 1
 450 400 l 1
 550 400 l 1
 550 100 l 1
 550 0 l 1
 450 0 l 1
 350 0 l 1
 250 0 l 1
 150 0 l 1
 50 0 l 1
 50 100 l 1
 50 400 l 1
 150 400 l 1
 150 100 l 1
 250 100 l 1
 250 400 l 1
 350 400 l 1
 350 100 l 1
 450 100 l 1
EndSplineSet
Validated: 1
EndChar

StartChar: x
Encoding: 120 120 50
Width: 500
Flags: MW
LayerCount: 2
Fore
SplineSet
450 400 m 1
 312.5 200 l 1
 450 0 l 1
 325 0 l 1
 250 109.08984375 l 1
 175 0 l 1
 50 0 l 1
 187.5 200 l 1
 50 400 l 1
 175 400 l 1
 250 290.91015625 l 1
 325 400 l 1
 450 400 l 1
EndSplineSet
Validated: 1
EndChar

StartChar: y
Encoding: 121 121 51
Width: 500
Flags: MW
LayerCount: 2
Fore
SplineSet
350 100 m 1
 350 400 l 1
 450 400 l 1
 450 100 l 1
 450 0 l 1
 450 -100 l 1
 450 -200 l 1
 350 -200 l 1
 50 -200 l 1
 50 -100 l 1
 350 -100 l 1
 350 0 l 1
 150 0 l 1
 50 0 l 1
 50 100 l 1
 50 400 l 1
 150 400 l 1
 150 100 l 1
 350 100 l 1
EndSplineSet
Validated: 1
EndChar

StartChar: z
Encoding: 122 122 52
Width: 500
Flags: MW
LayerCount: 2
Fore
SplineSet
450 400 m 1
 375 300 l 1
 225 100 l 1
 450 100 l 1
 450 0 l 1
 150 0 l 1
 50 0 l 1
 125 100 l 1
 275 300 l 1
 50 300 l 1
 50 400 l 1
 350 400 l 1
 450 400 l 1
EndSplineSet
Validated: 1
EndChar

StartChar: comma
Encoding: 44 44 53
Width: 250
Flags: MW
LayerCount: 2
Fore
SplineSet
100 -70.5302734375 m 1
 0 -70.5302734375 l 1
 100 79.4697265625 l 1
 200 79.4697265625 l 1
 100 -70.5302734375 l 1
EndSplineSet
Validated: 1
EndChar

StartChar: exclam
Encoding: 33 33 54
Width: 200
Flags: MW
LayerCount: 2
Fore
SplineSet
50 0 m 1
 50 100 l 1
 150 100 l 1
 150 0 l 1
 50 0 l 1
50 200 m 1
 50 600 l 1
 150 600 l 1
 150 200 l 1
 50 200 l 1
EndSplineSet
Validated: 1
EndChar

StartChar: quotedbl
Encoding: 34 34 55
Width: 350
Flags: MW
LayerCount: 2
Fore
SplineSet
200 450 m 1
 200 600 l 1
 300 600 l 1
 300 450 l 1
 200 450 l 1
50 450 m 1
 50 600 l 1
 150 600 l 1
 150 450 l 1
 50 450 l 1
EndSplineSet
Validated: 1
EndChar

StartChar: numbersign
Encoding: 35 35 56
Width: 600
Flags: MW
LayerCount: 2
Fore
SplineSet
433.330078125 600 m 1
 433.330078125 466.669921875 l 1
 550 466.669921875 l 1
 550 366.669921875 l 1
 433.330078125 366.669921875 l 1
 433.330078125 233.330078125 l 1
 550 233.330078125 l 1
 550 133.330078125 l 1
 433.330078125 133.330078125 l 1
 433.330078125 0 l 1
 333.330078125 0 l 1
 333.330078125 133.330078125 l 1
 266.669921875 133.330078125 l 1
 266.669921875 0 l 1
 166.669921875 0 l 1
 166.669921875 133.330078125 l 1
 50 133.330078125 l 1
 50 233.330078125 l 1
 166.669921875 233.330078125 l 1
 166.669921875 366.669921875 l 1
 50 366.669921875 l 1
 50 466.669921875 l 1
 166.669921875 466.669921875 l 1
 166.669921875 600 l 1
 266.669921875 600 l 1
 266.669921875 466.669921875 l 1
 333.330078125 466.669921875 l 1
 333.330078125 600 l 1
 433.330078125 600 l 1
333.330078125 233.330078125 m 1
 333.330078125 366.669921875 l 1
 266.669921875 366.669921875 l 1
 266.669921875 233.330078125 l 1
 333.330078125 233.330078125 l 1
EndSplineSet
Validated: 1
EndChar

StartChar: dollar
Encoding: 36 36 57
Width: 500
Flags: MW
LayerCount: 2
Fore
SplineSet
450 500 m 1
 150 500 l 1
 150 350 l 1
 350 350 l 1
 450 350 l 1
 450 250 l 1
 450 100 l 1
 450 0 l 1
 350 0 l 1
 302.120117188 0 l 1
 302.120117188 -100 l 1
 202.120117188 -100 l 1
 202.120117188 0 l 1
 50 0 l 1
 50 100 l 1
 350 100 l 1
 350 250 l 1
 150 250 l 1
 50 250 l 1
 50 350 l 1
 50 500 l 1
 50 600 l 1
 150 600 l 1
 202.120117188 600 l 1
 202.120117188 700 l 1
 302.120117188 700 l 1
 302.120117188 600 l 1
 450 600 l 1
 450 500 l 1
EndSplineSet
Validated: 1
EndChar

StartChar: percent
Encoding: 37 37 58
Width: 500
Flags: MW
LayerCount: 2
Fore
SplineSet
75 475 m 1
 75 575 l 1
 175 575 l 1
 175 475 l 1
 75 475 l 1
325 25 m 1
 325 125 l 1
 425 125 l 1
 425 25 l 1
 325 25 l 1
350 600 m 1
 450 600 l 1
 150 0 l 1
 50 0 l 1
 350 600 l 1
EndSplineSet
Validated: 1
EndChar

StartChar: ampersand
Encoding: 38 38 59
Width: 600
Flags: MW
LayerCount: 2
Fore
SplineSet
450 500 m 1
 450 400 l 1
 550 400 l 1
 550 300 l 1
 450 300 l 1
 450 0 l 1
 50 0 l 1
 50 600 l 1
 450 600 l 1
 450 500 l 1
150 500 m 1
 150 400 l 1
 350 400 l 1
 350 500 l 1
 150 500 l 1
350 100 m 1
 350 300 l 1
 150 300 l 1
 150 100 l 1
 350 100 l 1
EndSplineSet
Validated: 1
EndChar

StartChar: quotesingle
Encoding: 39 39 60
Width: 200
Flags: MW
LayerCount: 2
Fore
SplineSet
50 450 m 1
 50 600 l 1
 150 600 l 1
 150 450 l 1
 50 450 l 1
EndSplineSet
Validated: 1
EndChar

StartChar: parenleft
Encoding: 40 40 61
Width: 300
Flags: MW
LayerCount: 2
Fore
SplineSet
250 0 m 1
 150 0 l 1
 50 300 l 1
 150 600 l 1
 250 600 l 1
 150 300 l 1
 250 0 l 1
EndSplineSet
Validated: 1
EndChar

StartChar: parenright
Encoding: 41 41 62
Width: 300
Flags: MW
LayerCount: 2
Fore
SplineSet
150 0 m 1
 50 0 l 1
 150 300 l 1
 50 600 l 1
 150 600 l 1
 250 300 l 1
 150 0 l 1
EndSplineSet
Validated: 1
EndChar

StartChar: asterisk
Encoding: 42 42 63
Width: 500
Flags: MW
LayerCount: 2
Fore
SplineSet
450 450 m 1
 356.25 400 l 1
 450 350 l 1
 402.940429688 261.76953125 l 1
 300 316.669921875 l 1
 300 200 l 1
 200 200 l 1
 200 316.669921875 l 1
 97.0595703125 261.76953125 l 1
 50 350 l 1
 143.75 400 l 1
 50 450 l 1
 97.0595703125 538.23046875 l 1
 200 483.330078125 l 1
 200 600 l 1
 300 600 l 1
 300 483.330078125 l 1
 402.940429688 538.23046875 l 1
 450 450 l 1
EndSplineSet
Validated: 1
EndChar

StartChar: plus
Encoding: 43 43 64
Width: 400
Flags: MW
LayerCount: 2
Fore
SplineSet
150 100 m 1
 150 200 l 1
 50 200 l 1
 50 300 l 1
 150 300 l 1
 150 400 l 1
 250 400 l 1
 250 300 l 1
 350 300 l 1
 350 200 l 1
 250 200 l 1
 250 100 l 1
 150 100 l 1
EndSplineSet
Validated: 1
EndChar

StartChar: hyphen
Encoding: 45 45 65
Width: 400
Flags: MW
LayerCount: 2
Fore
SplineSet
50 200 m 1
 50 300 l 1
 350 300 l 1
 350 200 l 1
 50 200 l 1
EndSplineSet
Validated: 1
EndChar

StartChar: period
Encoding: 46 46 66
Width: 200
Flags: MW
LayerCount: 2
Fore
SplineSet
50 0 m 1
 50 100 l 1
 150 100 l 1
 150 0 l 1
 50 0 l 1
EndSplineSet
Validated: 1
EndChar

StartChar: slash
Encoding: 47 47 67
Width: 350
Flags: MW
LayerCount: 2
Fore
SplineSet
200 600 m 1
 300 600 l 1
 150 0 l 1
 50 0 l 1
 200 600 l 1
EndSplineSet
Validated: 1
EndChar

StartChar: colon
Encoding: 58 58 68
Width: 200
Flags: MW
LayerCount: 2
Fore
SplineSet
50 300 m 1
 50 400 l 1
 150 400 l 1
 150 300 l 1
 50 300 l 1
50 0 m 1
 50 100 l 1
 150 100 l 1
 150 0 l 1
 50 0 l 1
EndSplineSet
Validated: 1
EndChar

StartChar: semicolon
Encoding: 59 59 69
Width: 250
Flags: MW
LayerCount: 2
Fore
SplineSet
100 300 m 1
 100 400 l 1
 200 400 l 1
 200 300 l 1
 100 300 l 1
200 75 m 1
 100 -75 l 1
 0 -75 l 1
 100 75 l 1
 200 75 l 1
EndSplineSet
Validated: 1
EndChar

StartChar: less
Encoding: 60 60 70
Width: 350
Flags: MW
LayerCount: 2
Fore
SplineSet
200 450 m 1
 300 450 l 1
 150 250 l 1
 300 50 l 1
 200 50 l 1
 50 250 l 1
 200 450 l 1
EndSplineSet
Validated: 1
EndChar

StartChar: equal
Encoding: 61 61 71
Width: 400
Flags: MW
LayerCount: 2
Fore
SplineSet
50 300 m 1
 50 400 l 1
 350 400 l 1
 350 300 l 1
 50 300 l 1
50 100 m 1
 50 200 l 1
 350 200 l 1
 350 100 l 1
 50 100 l 1
EndSplineSet
Validated: 1
EndChar

StartChar: greater
Encoding: 62 62 72
Width: 350
Flags: MW
LayerCount: 2
Fore
SplineSet
50 450 m 1
 150 450 l 1
 300 250 l 1
 150 50 l 1
 50 50 l 1
 200 250 l 1
 50 450 l 1
EndSplineSet
Validated: 1
EndChar

StartChar: question
Encoding: 63 63 73
Width: 500
Flags: MW
LayerCount: 2
Fore
SplineSet
150 600 m 1
 350 600 l 1
 450 600 l 1
 450 500 l 1
 450 400 l 1
 450 300 l 1
 350 300 l 1
 300 300 l 1
 300 200 l 1
 200 200 l 1
 200 300 l 1
 200 400 l 1
 300 400 l 1
 350 400 l 1
 350 500 l 1
 150 500 l 1
 150 400 l 1
 50 400 l 1
 50 500 l 1
 50 600 l 1
 150 600 l 1
200 0 m 1
 200 100 l 1
 300 100 l 1
 300 0 l 1
 200 0 l 1
EndSplineSet
Validated: 1
EndChar

StartChar: at
Encoding: 64 64 74
Width: 500
Flags: MW
LayerCount: 2
Fore
SplineSet
150 400 m 1
 450 400 l 1
 450 125 l 1
 175 125 l 1
 175 275 l 1
 350 275 l 1
 350 300 l 1
 150 300 l 1
 150 100 l 1
 450 100 l 1
 450 0 l 1
 50 0 l 1
 50 400 l 1
 150 400 l 1
350 175 m 1
 350 225 l 1
 225 225 l 1
 225 175 l 1
 350 175 l 1
EndSplineSet
Validated: 1
EndChar

StartChar: bracketleft
Encoding: 91 91 75
Width: 300
Flags: MW
LayerCount: 2
Fore
SplineSet
50 600 m 1
 150 600 l 1
 250 600 l 1
 250 500 l 1
 150 500 l 1
 150 100 l 1
 250 100 l 1
 250 0 l 1
 150 0 l 1
 50 0 l 1
 50 600 l 1
EndSplineSet
Validated: 1
EndChar

StartChar: backslash
Encoding: 92 92 76
Width: 350
Flags: MW
LayerCount: 2
Fore
SplineSet
50 600 m 1
 150 600 l 1
 300 0 l 1
 200 0 l 1
 50 600 l 1
EndSplineSet
Validated: 1
EndChar

StartChar: bracketright
Encoding: 93 93 77
Width: 300
Flags: MW
LayerCount: 2
Fore
SplineSet
50 600 m 1
 150 600 l 1
 250 600 l 1
 250 0 l 1
 150 0 l 1
 50 0 l 1
 50 100 l 1
 150 100 l 1
 150 500 l 1
 50 500 l 1
 50 600 l 1
EndSplineSet
Validated: 1
EndChar

StartChar: asciicircum
Encoding: 94 94 78
Width: 400
Flags: MW
LayerCount: 2
Fore
SplineSet
50 500 m 1
 200 600 l 1
 350 500 l 1
 350 400 l 1
 200 500 l 1
 50 400 l 1
 50 500 l 1
EndSplineSet
Validated: 1
EndChar

StartChar: underscore
Encoding: 95 95 79
Width: 500
Flags: MW
LayerCount: 2
Fore
SplineSet
50 4.4697265625 m 1
 50 104.469726562 l 1
 450 104.469726562 l 1
 450 4.4697265625 l 1
 50 4.4697265625 l 1
EndSplineSet
Validated: 1
EndChar

StartChar: grave
Encoding: 96 96 80
Width: 300
Flags: MW
LayerCount: 2
Fore
SplineSet
50 600 m 1
 150 600 l 1
 250 450 l 1
 150 450 l 1
 50 600 l 1
EndSplineSet
Validated: 1
EndChar

StartChar: braceleft
Encoding: 123 123 81
Width: 400
Flags: MW
LayerCount: 2
Fore
SplineSet
150 600 m 1
 250 600 l 1
 350 600 l 1
 350 500 l 1
 250 500 l 1
 250 100 l 1
 350 100 l 1
 350 0 l 1
 250 0 l 1
 150 0 l 1
 150 250 l 1
 50 250 l 1
 50 350 l 1
 150 350 l 1
 150 600 l 1
EndSplineSet
Validated: 1
EndChar

StartChar: bar
Encoding: 124 124 82
Width: 200
Flags: MW
LayerCount: 2
Fore
SplineSet
50 -100 m 1
 50 600 l 1
 150 600 l 1
 150 -100 l 1
 50 -100 l 1
EndSplineSet
Validated: 1
EndChar

StartChar: braceright
Encoding: 125 125 83
Width: 400
Flags: MW
LayerCount: 2
Fore
SplineSet
250 600 m 1
 250 350 l 1
 350 350 l 1
 350 250 l 1
 250 250 l 1
 250 0 l 1
 150 0 l 1
 50 0 l 1
 50 100 l 1
 150 100 l 1
 150 500 l 1
 50 500 l 1
 50 600 l 1
 150 600 l 1
 250 600 l 1
EndSplineSet
Validated: 1
EndChar

StartChar: asciitilde
Encoding: 126 126 84
Width: 500
Flags: MW
LayerCount: 2
Fore
SplineSet
150 400 m 1
 150 300 l 1
 450 300 l 1
 450 200 l 1
 450 100 l 1
 350 100 l 1
 350 200 l 1
 50 200 l 1
 50 300 l 1
 50 400 l 1
 150 400 l 1
EndSplineSet
Validated: 1
EndChar

StartChar: zero
Encoding: 48 48 85
Width: 500
Flags: MW
LayerCount: 2
Fore
SplineSet
150 599.5 m 1
 450 599.5 l 1
 450 -0.5 l 1
 50 -0.5 l 1
 50 599.5 l 1
 150 599.5 l 1
350 99.5 m 1
 350 499.5 l 1
 150 499.5 l 1
 150 99.5 l 1
 350 99.5 l 1
EndSplineSet
Validated: 1
EndChar

StartChar: one
Encoding: 49 49 86
Width: 300
Flags: MW
LayerCount: 2
Fore
SplineSet
150 -0.5 m 1
 150 499.5 l 1
 50 499.5 l 1
 50 599.5 l 1
 150 599.5 l 1
 250 599.5 l 1
 250 -0.5 l 1
 150 -0.5 l 1
EndSplineSet
Validated: 1
EndChar

StartChar: two
Encoding: 50 50 87
Width: 500
Flags: MW
LayerCount: 2
Fore
SplineSet
50 599.5 m 1
 350 599.5 l 1
 450 599.5 l 1
 450 499.5 l 1
 450 399.5 l 1
 450 299.5 l 1
 350 299.5 l 1
 150 299.5 l 1
 150 99.5 l 1
 450 99.5 l 1
 450 -0.5 l 1
 150 -0.5 l 1
 50 -0.5 l 1
 50 99.5 l 1
 50 299.5 l 1
 50 399.5 l 1
 150 399.5 l 1
 350 399.5 l 1
 350 499.5 l 1
 50 499.5 l 1
 50 599.5 l 1
EndSplineSet
Validated: 1
EndChar

StartChar: three
Encoding: 51 51 88
Width: 500
Flags: MW
LayerCount: 2
Fore
SplineSet
450 -0.5 m 1
 350 -0.5 l 1
 50 -0.5 l 1
 50 99.5 l 1
 350 99.5 l 1
 350 299.5 l 1
 50 299.5 l 1
 50 399.5 l 1
 350 399.5 l 1
 350 499.5 l 1
 50 499.5 l 1
 50 599.5 l 1
 350 599.5 l 1
 450 599.5 l 1
 450 499.5 l 1
 450 399.5 l 1
 450 299.5 l 1
 450 99.5 l 1
 450 -0.5 l 1
EndSplineSet
Validated: 1
EndChar

StartChar: four
Encoding: 52 52 89
Width: 500
Flags: MW
LayerCount: 2
Fore
SplineSet
350 299.5 m 1
 150 299.5 l 1
 50 299.5 l 1
 50 399.5 l 1
 50 599.5 l 1
 150 599.5 l 1
 150 399.5 l 1
 350 399.5 l 1
 350 599.5 l 1
 450 599.5 l 1
 450 399.5 l 1
 450 299.5 l 1
 450 -0.5 l 1
 350 -0.5 l 1
 350 299.5 l 1
EndSplineSet
Validated: 1
EndChar

StartChar: five
Encoding: 53 53 90
Width: 500
Flags: MW
LayerCount: 2
Fore
SplineSet
50 599.5 m 1
 150 599.5 l 1
 450 599.5 l 1
 450 499.5 l 1
 150 499.5 l 1
 150 399.5 l 1
 350 399.5 l 1
 450 399.5 l 1
 450 299.5 l 1
 450 99.5 l 1
 450 -0.5 l 1
 350 -0.5 l 1
 50 -0.5 l 1
 50 99.5 l 1
 50 199.5 l 1
 150 199.5 l 1
 150 99.5 l 1
 350 99.5 l 1
 350 299.5 l 1
 50 299.5 l 1
 50 300 l 1
 50 399.5 l 1
 50 499.5 l 1
 50 599.5 l 1
EndSplineSet
Validated: 1
EndChar

StartChar: six
Encoding: 54 54 91
Width: 500
Flags: MW
LayerCount: 2
Fore
SplineSet
50 599.5 m 1
 450 599.5 l 1
 450 499.5 l 1
 150 499.5 l 1
 150 399.5 l 1
 450 399.5 l 1
 450 -0.5 l 1
 50 -0.5 l 1
 50 599.5 l 1
350 299.5 m 1
 150 299.5 l 1
 150 99.5 l 1
 350 99.5 l 1
 350 299.5 l 1
EndSplineSet
Validated: 1
EndChar

StartChar: seven
Encoding: 55 55 92
Width: 500
Flags: MW
LayerCount: 2
Fore
SplineSet
50 599.5 m 1
 350 599.5 l 1
 450 599.5 l 1
 450 499.5 l 1
 450 -0.5 l 1
 350 -0.5 l 1
 350 499.5 l 1
 50 499.5 l 1
 50 599.5 l 1
EndSplineSet
Validated: 1
EndChar

StartChar: eight
Encoding: 56 56 93
Width: 500
Flags: MW
LayerCount: 2
Fore
SplineSet
150 599.5 m 1
 450 599.5 l 1
 450 -0.5 l 1
 50 -0.5 l 1
 50 599.5 l 1
 150 599.5 l 1
350 99.5 m 1
 350 299.5 l 1
 150 299.5 l 1
 150 99.5 l 1
 350 99.5 l 1
350 399.5 m 1
 350 499.5 l 1
 150 499.5 l 1
 150 399.5 l 1
 350 399.5 l 1
EndSplineSet
Validated: 1
EndChar

StartChar: nine
Encoding: 57 57 94
Width: 500
Flags: MW
LayerCount: 2
Fore
SplineSet
350 599.5 m 1
 450 599.5 l 1
 450 -0.5 l 1
 50 -0.5 l 1
 50 99.5 l 1
 350 99.5 l 1
 350 299.5 l 1
 50 299.5 l 1
 50 599.5 l 1
 350 599.5 l 1
350 399.5 m 1
 350 499.5 l 1
 150 499.5 l 1
 150 399.5 l 1
 350 399.5 l 1
EndSplineSet
Validated: 1
EndChar

StartChar: exclamdown
Encoding: 161 161 95
Width: 200
Flags: MW
LayerCount: 2
Fore
SplineSet
50 -200 m 1
 50 200 l 1
 150 200 l 1
 150 -200 l 1
 50 -200 l 1
50 300 m 1
 50 400 l 1
 150 400 l 1
 150 300 l 1
 50 300 l 1
EndSplineSet
Validated: 1
EndChar

StartChar: cent
Encoding: 162 162 96
Width: 500
Flags: MW
LayerCount: 2
Fore
SplineSet
300 500 m 1
 300 400 l 1
 450 400 l 1
 450 300 l 1
 300 300 l 1
 300 100 l 1
 450 100 l 1
 450 0 l 1
 300 0 l 1
 300 -100 l 1
 200 -100 l 1
 200 0 l 1
 50 0 l 1
 50 400 l 1
 200 400 l 1
 200 500 l 1
 300 500 l 1
200 100 m 1
 200 300 l 1
 150 300 l 1
 150 100 l 1
 200 100 l 1
EndSplineSet
Validated: 1
EndChar

StartChar: sterling
Encoding: 163 163 97
Width: 500
Flags: MW
LayerCount: 2
Fore
SplineSet
150 500 m 1
 150 600 l 1
 450 600 l 1
 450 500 l 1
 450 450 l 1
 350 450 l 1
 350 500 l 1
 250 500 l 1
 250 400 l 1
 400 400 l 1
 400 300 l 1
 250 300 l 1
 150 100 l 1
 350 100 l 1
 350 200 l 1
 450 200 l 1
 450 100 l 1
 450 0 l 1
 150 0 l 1
 50 0 l 1
 50 100 l 1
 150 300 l 1
 50 300 l 1
 50 400 l 1
 150 400 l 1
 150 500 l 1
EndSplineSet
Validated: 1
EndChar

StartChar: currency
Encoding: 164 164 98
Width: 500
Flags: MW
LayerCount: 2
Fore
SplineSet
375 400 m 1
 450 325 l 1
 375.889648438 250.889648438 l 1
 426.780273438 200 l 1
 375.889648438 149.110351562 l 1
 450 75 l 1
 375 0 l 1
 300.889648438 74.1103515625 l 1
 250 23.2197265625 l 1
 199.110351562 74.1103515625 l 1
 125 0 l 1
 50 75 l 1
 124.110351562 149.110351562 l 1
 73.2197265625 200 l 1
 124.110351562 250.889648438 l 1
 50 325 l 1
 125 400 l 1
 199.110351562 325.889648438 l 1
 250 376.780273438 l 1
 300.889648438 325.889648438 l 1
 375 400 l 1
250 164.639648438 m 1
 285.360351562 200 l 1
 250 235.360351562 l 1
 214.639648438 200 l 1
 250 164.639648438 l 1
EndSplineSet
Validated: 1
EndChar

StartChar: yen
Encoding: 165 165 99
Width: 500
Flags: MW
LayerCount: 2
Fore
SplineSet
350 600 m 1
 450 600 l 1
 350 400 l 1
 450 400 l 1
 450 300 l 1
 300 300 l 1
 300 250 l 1
 450 250 l 1
 450 150 l 1
 300 150 l 1
 300 0 l 1
 200 0 l 1
 200 150 l 1
 50 150 l 1
 50 250 l 1
 200 250 l 1
 200 300 l 1
 50 300 l 1
 50 400 l 1
 150 400 l 1
 50 600 l 1
 150 600 l 1
 250 400 l 1
 350 600 l 1
EndSplineSet
Validated: 1
EndChar

StartChar: brokenbar
Encoding: 166 166 100
Width: 200
Flags: MW
LayerCount: 2
Fore
SplineSet
50 -100 m 1
 50 200 l 1
 150 200 l 1
 150 -100 l 1
 50 -100 l 1
50 300 m 1
 50 600 l 1
 150 600 l 1
 150 300 l 1
 50 300 l 1
EndSplineSet
Validated: 1
EndChar

StartChar: section
Encoding: 167 167 101
Width: 500
Flags: MW
LayerCount: 2
Fore
SplineSet
50 600 m 1
 450 600 l 1
 450 500 l 1
 150 500 l 1
 150 366.669921875 l 1
 450 366.669921875 l 1
 450 -200 l 1
 50 -200 l 1
 50 -100 l 1
 350 -100 l 1
 350 33.330078125 l 1
 50 33.330078125 l 1
 50 600 l 1
350 266.669921875 m 1
 150 266.669921875 l 1
 150 133.330078125 l 1
 350 133.330078125 l 1
 350 266.669921875 l 1
EndSplineSet
Validated: 1
EndChar

StartChar: dieresis
Encoding: 168 168 102
Width: 400
Flags: MW
LayerCount: 2
Fore
SplineSet
50 500 m 1
 50 600 l 1
 150 600 l 1
 150 500 l 1
 50 500 l 1
250 500 m 1
 250 600 l 1
 350 600 l 1
 350 500 l 1
 250 500 l 1
EndSplineSet
Validated: 1
EndChar

StartChar: copyright
Encoding: 169 169 103
Width: 500
Flags: MW
LayerCount: 2
Fore
SplineSet
333.330078125 333.330078125 m 1
 216.669921875 333.330078125 l 1
 216.669921875 266.669921875 l 1
 333.330078125 266.669921875 l 1
 333.330078125 216.669921875 l 1
 216.669921875 216.669921875 l 1
 166.669921875 216.669921875 l 1
 166.669921875 266.669921875 l 1
 166.669921875 333.330078125 l 1
 166.669921875 383.330078125 l 1
 216.669921875 383.330078125 l 1
 333.330078125 383.330078125 l 1
 333.330078125 333.330078125 l 1
400 100 m 1
 50 100 l 1
 50 500 l 1
 450 500 l 1
 450 100 l 1
 400 100 l 1
100 450 m 1
 100 150 l 1
 400 150 l 1
 400 450 l 1
 100 450 l 1
EndSplineSet
Validated: 1
EndChar

StartChar: ordfeminine
Encoding: 170 170 104
Width: 300
Flags: MW
LayerCount: 2
Fore
SplineSet
200 400 m 1
 50 400 l 1
 50 525 l 1
 200 525 l 1
 200 550 l 1
 50 550 l 1
 50 600 l 1
 250 600 l 1
 250 400 l 1
 200 400 l 1
100 475 m 1
 100 450 l 1
 200 450 l 1
 200 475 l 1
 100 475 l 1
EndSplineSet
Validated: 1
EndChar

StartChar: guillemotleft
Encoding: 171 171 105
Width: 500
Flags: MW
LayerCount: 2
Fore
SplineSet
350 50 m 1
 250 250 l 1
 350 450 l 1
 450 450 l 1
 350 250 l 1
 450 50 l 1
 350 50 l 1
250 50 m 1
 150 50 l 1
 50 250 l 1
 150 450 l 1
 250 450 l 1
 150 250 l 1
 250 50 l 1
EndSplineSet
Validated: 1
EndChar

StartChar: logicalnot
Encoding: 172 172 106
Width: 500
Flags: MW
LayerCount: 2
Fore
SplineSet
50 200 m 1
 50 300 l 1
 450 300 l 1
 450 200 l 1
 450 100 l 1
 350 100 l 1
 350 200 l 1
 50 200 l 1
EndSplineSet
Validated: 1
EndChar

StartChar: uni00AD
Encoding: 173 173 107
Width: 400
Flags: MW
LayerCount: 2
Fore
SplineSet
50 150 m 1
 50 250 l 1
 350 250 l 1
 350 150 l 1
 50 150 l 1
EndSplineSet
Validated: 1
EndChar

StartChar: registered
Encoding: 174 174 108
Width: 400
Flags: MW
LayerCount: 2
Fore
SplineSet
100 600 m 1
 350 600 l 1
 350 300 l 1
 50 300 l 1
 50 600 l 1
 100 600 l 1
300 350 m 1
 300 550 l 1
 100 550 l 1
 100 350 l 1
 300 350 l 1
175 366.669921875 m 1
 125 366.669921875 l 1
 125 533.349609375 l 1
 258.330078125 533.349609375 l 1
 258.330078125 445.349609375 l 1
 275 445.349609375 l 1
 275 366.669921875 l 1
 225 366.669921875 l 1
 225 400 l 1
 175 400 l 1
 175 366.669921875 l 1
175 483.330078125 m 1
 175 450 l 1
 208.330078125 450 l 1
 208.330078125 483.330078125 l 1
 175 483.330078125 l 1
EndSplineSet
Validated: 1
EndChar

StartChar: macron
Encoding: 175 175 109
Width: 500
Flags: MW
LayerCount: 2
Fore
SplineSet
50 500 m 1
 50 600 l 1
 450 600 l 1
 450 500 l 1
 50 500 l 1
EndSplineSet
Validated: 1
EndChar

StartChar: degree
Encoding: 176 176 110
Width: 300
Flags: MW
LayerCount: 2
Fore
SplineSet
100 600 m 1
 250 600 l 1
 250 400 l 1
 50 400 l 1
 50 600 l 1
 100 600 l 1
200 450 m 1
 200 550 l 1
 100 550 l 1
 100 450 l 1
 200 450 l 1
EndSplineSet
Validated: 1
EndChar

StartChar: plusminus
Encoding: 177 177 111
Width: 400
Flags: MW
LayerCount: 2
Fore
SplineSet
50 100 m 1
 150 100 l 1
 150 200 l 1
 50 200 l 1
 50 300 l 1
 150 300 l 1
 150 400 l 1
 250 400 l 1
 250 300 l 1
 350 300 l 1
 350 200 l 1
 250 200 l 1
 250 100 l 1
 350 100 l 1
 350 0 l 1
 50 0 l 1
 50 100 l 1
EndSplineSet
Validated: 1
EndChar

StartChar: uni00B2
Encoding: 178 178 112
Width: 250
Flags: MW
LayerCount: 2
Fore
SplineSet
200 400 m 1
 100 400 l 1
 50 400 l 1
 50 450 l 1
 50 475 l 1
 50 525 l 1
 100 525 l 1
 150 525 l 1
 150 550 l 1
 50 550 l 1
 50 600 l 1
 150 600 l 1
 200 600 l 1
 200 550 l 1
 200 525 l 1
 200 475 l 1
 150 475 l 1
 100 475 l 1
 100 450 l 1
 200 450 l 1
 200 400 l 1
EndSplineSet
Validated: 1
EndChar

StartChar: uni00B3
Encoding: 179 179 113
Width: 250
Flags: MW
LayerCount: 2
Fore
SplineSet
200 450 m 1
 200 400 l 1
 150 400 l 1
 50 400 l 1
 50 450 l 1
 150 450 l 1
 150 475 l 1
 50 475 l 1
 50 525 l 1
 150 525 l 1
 150 550 l 1
 50 550 l 1
 50 600 l 1
 150 600 l 1
 200 600 l 1
 200 550 l 1
 200 525 l 1
 200 475 l 1
 200 450 l 1
EndSplineSet
Validated: 1
EndChar

StartChar: acute
Encoding: 180 180 114
Width: 300
Flags: MW
LayerCount: 2
Fore
SplineSet
250 600 m 1
 150 450 l 1
 50 450 l 1
 150 600 l 1
 250 600 l 1
EndSplineSet
Validated: 1
EndChar

StartChar: mu
Encoding: 181 181 115
Width: 600
Flags: MW
LayerCount: 2
Fore
SplineSet
450 400 m 1
 450 100 l 1
 550 100 l 1
 550 0 l 1
 450 0 l 1
 350 0 l 1
 150 0 l 1
 150 -100 l 1
 50 -100 l 1
 50 0 l 1
 50 100 l 1
 50 400 l 1
 150 400 l 1
 150 100 l 1
 350 100 l 1
 350 400 l 1
 450 400 l 1
EndSplineSet
Validated: 1
EndChar

StartChar: paragraph
Encoding: 182 182 116
Width: 500
Flags: MW
LayerCount: 2
Fore
SplineSet
350 600 m 1
 400 600 l 1
 450 600 l 1
 450 550 l 1
 400 550 l 1
 400 -100 l 1
 350 -100 l 1
 350 550 l 1
 300 550 l 1
 300 300 l 1
 300 -100 l 1
 250 -100 l 1
 250 300 l 1
 50 300 l 1
 50 550 l 1
 50 600 l 1
 250 600 l 1
 300 600 l 1
 350 600 l 1
EndSplineSet
Validated: 1
EndChar

StartChar: periodcentered
Encoding: 183 183 117
Width: 200
Flags: MW
LayerCount: 2
Fore
SplineSet
50 300 m 1
 50 400 l 1
 150 400 l 1
 150 300 l 1
 50 300 l 1
EndSplineSet
Validated: 1
EndChar

StartChar: cedilla
Encoding: 184 184 118
Width: 200
Flags: MW
LayerCount: 2
Fore
SplineSet
50 -100 m 1
 50 0 l 1
 150 0 l 1
 150 -100 l 1
 50 -100 l 1
EndSplineSet
Validated: 1
EndChar

StartChar: uni00B9
Encoding: 185 185 119
Width: 200
Flags: MW
LayerCount: 2
Fore
SplineSet
50 600 m 1
 100 600 l 1
 150 600 l 1
 150 400 l 1
 100 400 l 1
 100 550 l 1
 50 550 l 1
 50 600 l 1
EndSplineSet
Validated: 1
EndChar

StartChar: ordmasculine
Encoding: 186 186 120
Width: 250
Flags: MW
LayerCount: 2
Fore
SplineSet
100 600 m 1
 200 600 l 1
 200 400 l 1
 50 400 l 1
 50 600 l 1
 100 600 l 1
150 450 m 1
 150 550 l 1
 100 550 l 1
 100 450 l 1
 150 450 l 1
EndSplineSet
Validated: 1
EndChar

StartChar: guillemotright
Encoding: 187 187 121
Width: 500
Flags: MW
LayerCount: 2
Fore
SplineSet
150 50 m 1
 50 50 l 1
 150 250 l 1
 50 450 l 1
 150 450 l 1
 250 250 l 1
 150 50 l 1
250 450 m 1
 350 450 l 1
 450 250 l 1
 350 50 l 1
 250 50 l 1
 350 250 l 1
 250 450 l 1
EndSplineSet
Validated: 1
EndChar

StartChar: onequarter
Encoding: 188 188 122
Width: 500
Flags: MW
LayerCount: 2
Fore
SplineSet
98.939453125 400 m 1
 98.939453125 550 l 1
 48.939453125 550 l 1
 48.939453125 600 l 1
 98.939453125 600 l 1
 148.939453125 600 l 1
 148.939453125 400 l 1
 98.939453125 400 l 1
451.060546875 0 m 1
 401.060546875 0 l 1
 401.060546875 87.5 l 1
 351.060546875 87.5 l 1
 301.060546875 87.5 l 1
 301.060546875 200 l 1
 351.060546875 200 l 1
 351.060546875 137.5 l 1
 401.060546875 137.5 l 1
 401.060546875 200 l 1
 451.060546875 200 l 1
 451.060546875 0 l 1
401.060546875 600 m 1
 451.060546875 600 l 1
 101.060546875 0 l 1
 51.060546875 0 l 1
 401.060546875 600 l 1
EndSplineSet
Validated: 1
EndChar

StartChar: onehalf
Encoding: 189 189 123
Width: 500
Flags: MW
LayerCount: 2
Fore
SplineSet
96.64453125 400 m 1
 96.64453125 550 l 1
 46.64453125 550 l 1
 46.64453125 600 l 1
 96.64453125 600 l 1
 146.64453125 600 l 1
 146.64453125 400 l 1
 96.64453125 400 l 1
403.35546875 75 m 1
 353.35546875 75 l 1
 353.35546875 50 l 1
 453.35546875 50 l 1
 453.35546875 0 l 1
 353.35546875 0 l 1
 303.35546875 0 l 1
 303.35546875 50 l 1
 303.35546875 75 l 1
 303.35546875 125 l 1
 353.35546875 125 l 1
 403.35546875 125 l 1
 403.35546875 150 l 1
 303.35546875 150 l 1
 303.35546875 200 l 1
 403.35546875 200 l 1
 453.35546875 200 l 1
 453.35546875 150 l 1
 453.35546875 75 l 1
 403.35546875 75 l 1
403.35546875 600 m 1
 453.35546875 600 l 1
 103.35546875 0 l 1
 53.35546875 0 l 1
 403.35546875 600 l 1
EndSplineSet
Validated: 1
EndChar

StartChar: threequarters
Encoding: 190 190 124
Width: 500
Flags: MW
LayerCount: 2
Fore
SplineSet
450 0 m 1
 400 0 l 1
 400 87.5 l 1
 350 87.5 l 1
 300 87.5 l 1
 300 200 l 1
 350 200 l 1
 350 137.5 l 1
 400 137.5 l 1
 400 200 l 1
 450 200 l 1
 450 0 l 1
200 400 m 1
 150 400 l 1
 50 400 l 1
 50 450 l 1
 150 450 l 1
 150 475 l 1
 50 475 l 1
 50 525 l 1
 150 525 l 1
 150 550 l 1
 50 550 l 1
 50 600 l 1
 150 600 l 1
 200 600 l 1
 200 550 l 1
 200 525 l 1
 200 475 l 1
 200 450 l 1
 200 400 l 1
450 600 m 1
 100 0 l 1
 50 0 l 1
 400 600 l 1
 450 600 l 1
EndSplineSet
Validated: 1
EndChar

StartChar: questiondown
Encoding: 191 191 125
Width: 500
Flags: MW
LayerCount: 2
Fore
SplineSet
200 300 m 1
 200 400 l 1
 300 400 l 1
 300 300 l 1
 200 300 l 1
350 -100 m 1
 350 0 l 1
 450 0 l 1
 450 -100 l 1
 450 -200 l 1
 350 -200 l 1
 150 -200 l 1
 50 -200 l 1
 50 -100 l 1
 50 0 l 1
 50 100 l 1
 150 100 l 1
 200 100 l 1
 200 200 l 1
 300 200 l 1
 300 100 l 1
 300 0 l 1
 200 0 l 1
 150 0 l 1
 150 -100 l 1
 350 -100 l 1
EndSplineSet
Validated: 1
EndChar

StartChar: Agrave
Encoding: 192 192 126
Width: 500
Flags: MW
LayerCount: 2
Fore
SplineSet
250 800 m 1
 300 650 l 1
 250 650 l 1
 200 800 l 1
 250 800 l 1
150 600 m 1
 450 600 l 1
 450 0 l 1
 350 0 l 1
 350 300 l 1
 150 300 l 1
 150 0 l 1
 50 0 l 1
 50 600 l 1
 150 600 l 1
350 400 m 1
 350 500 l 1
 150 500 l 1
 150 400 l 1
 350 400 l 1
EndSplineSet
Validated: 1
EndChar

StartChar: Aacute
Encoding: 193 193 127
Width: 500
Flags: MW
LayerCount: 2
Fore
SplineSet
250 650 m 1
 200 650 l 1
 250 800 l 1
 300 800 l 1
 250 650 l 1
150 600 m 1
 450 600 l 1
 450 0 l 1
 350 0 l 1
 350 300 l 1
 150 300 l 1
 150 0 l 1
 50 0 l 1
 50 600 l 1
 150 600 l 1
350 400 m 1
 350 500 l 1
 150 500 l 1
 150 400 l 1
 350 400 l 1
EndSplineSet
Validated: 1
EndChar

StartChar: Acircumflex
Encoding: 194 194 128
Width: 500
Flags: MW
LayerCount: 2
Fore
SplineSet
100 650 m 1
 100 700 l 1
 250 800 l 1
 400 700 l 1
 400 650 l 1
 250 750 l 1
 100 650 l 1
150 600 m 1
 450 600 l 1
 450 0 l 1
 350 0 l 1
 350 300 l 1
 150 300 l 1
 150 0 l 1
 50 0 l 1
 50 600 l 1
 150 600 l 1
350 400 m 1
 350 500 l 1
 150 500 l 1
 150 400 l 1
 350 400 l 1
EndSplineSet
Validated: 1
EndChar

StartChar: Atilde
Encoding: 195 195 129
Width: 500
Flags: MW
LayerCount: 2
Fore
SplineSet
150 600 m 1
 450 600 l 1
 450 0 l 1
 350 0 l 1
 350 300 l 1
 150 300 l 1
 150 0 l 1
 50 0 l 1
 50 600 l 1
 150 600 l 1
350 400 m 1
 350 500 l 1
 150 500 l 1
 150 400 l 1
 350 400 l 1
100 800 m 1
 100 750 l 1
 450 750 l 1
 450 700 l 1
 450 650 l 1
 400 650 l 1
 400 700 l 1
 50 700 l 1
 50 750 l 1
 50 800 l 1
 100 800 l 1
EndSplineSet
Validated: 1
EndChar

StartChar: Adieresis
Encoding: 196 196 130
Width: 500
Flags: MW
LayerCount: 2
Fore
SplineSet
150 600 m 1
 450 600 l 1
 450 0 l 1
 350 0 l 1
 350 300 l 1
 150 300 l 1
 150 0 l 1
 50 0 l 1
 50 600 l 1
 150 600 l 1
350 400 m 1
 350 500 l 1
 150 500 l 1
 150 400 l 1
 350 400 l 1
150 650 m 1
 150 700 l 1
 200 700 l 1
 200 650 l 1
 150 650 l 1
300 650 m 1
 300 700 l 1
 350 700 l 1
 350 650 l 1
 300 650 l 1
EndSplineSet
Validated: 1
EndChar

StartChar: Aring
Encoding: 197 197 131
Width: 500
Flags: MW
LayerCount: 2
Fore
SplineSet
150 600 m 1
 450 600 l 1
 450 0 l 1
 350 0 l 1
 350 300 l 1
 150 300 l 1
 150 0 l 1
 50 0 l 1
 50 600 l 1
 150 600 l 1
350 400 m 1
 350 500 l 1
 150 500 l 1
 150 400 l 1
 350 400 l 1
175 700 m 1
 175 800 l 1
 325 800 l 1
 325 650 l 1
 175 650 l 1
 175 700 l 1
275 750 m 1
 225 750 l 1
 225 700 l 1
 275 700 l 1
 275 750 l 1
EndSplineSet
Validated: 1
EndChar

StartChar: AE
Encoding: 198 198 132
Width: 800
Flags: MW
LayerCount: 2
Fore
SplineSet
450 600 m 1
 750 600 l 1
 750 500 l 1
 450 500 l 1
 450 400 l 1
 750 400 l 1
 750 300 l 1
 450 300 l 1
 450 100 l 1
 750 100 l 1
 750 0 l 1
 350 0 l 1
 350 300 l 1
 150 300 l 1
 150 0 l 1
 50 0 l 1
 50 600 l 1
 450 600 l 1
150 400 m 1
 350 400 l 1
 350 500 l 1
 150 500 l 1
 150 400 l 1
EndSplineSet
Validated: 1
EndChar

StartChar: Ccedilla
Encoding: 199 199 133
Width: 500
Flags: MW
LayerCount: 2
Fore
SplineSet
450 500 m 1
 150 500 l 1
 150 100 l 1
 450 100 l 1
 450 0 l 1
 275 0 l 1
 275 -100 l 1
 225 -100 l 1
 225 0 l 1
 150 0 l 1
 50 0 l 1
 50 100 l 1
 50 500 l 1
 50 600 l 1
 150 600 l 1
 450 600 l 1
 450 500 l 1
EndSplineSet
Validated: 1
EndChar

StartChar: Egrave
Encoding: 200 200 134
Width: 500
Flags: MW
LayerCount: 2
Fore
SplineSet
450 0 m 1
 150 0 l 1
 50 0 l 1
 50 100 l 1
 50 300 l 1
 50 400 l 1
 50 500 l 1
 50 600 l 1
 150 600 l 1
 450 600 l 1
 450 500 l 1
 150 500 l 1
 150 400 l 1
 450 400 l 1
 450 300 l 1
 150 300 l 1
 150 100 l 1
 450 100 l 1
 450 0 l 1
250 650 m 1
 200 800 l 1
 250 800 l 1
 300 650 l 1
 250 650 l 1
EndSplineSet
Validated: 1
EndChar

StartChar: Eacute
Encoding: 201 201 135
Width: 500
Flags: MW
LayerCount: 2
Fore
SplineSet
50 600 m 1
 150 600 l 1
 450 600 l 1
 450 500 l 1
 150 500 l 1
 150 400 l 1
 450 400 l 1
 450 300 l 1
 150 300 l 1
 150 100 l 1
 450 100 l 1
 450 0 l 1
 150 0 l 1
 50 0 l 1
 50 100 l 1
 50 300 l 1
 50 400 l 1
 50 500 l 1
 50 600 l 1
250 800 m 1
 300 800 l 1
 250 650 l 1
 200 650 l 1
 250 800 l 1
EndSplineSet
Validated: 1
EndChar

StartChar: Ecircumflex
Encoding: 202 202 136
Width: 500
Flags: MW
LayerCount: 2
Fore
SplineSet
50 600 m 1
 150 600 l 1
 450 600 l 1
 450 500 l 1
 150 500 l 1
 150 400 l 1
 450 400 l 1
 450 300 l 1
 150 300 l 1
 150 100 l 1
 450 100 l 1
 450 0 l 1
 150 0 l 1
 50 0 l 1
 50 100 l 1
 50 300 l 1
 50 400 l 1
 50 500 l 1
 50 600 l 1
400 650 m 1
 250 750 l 1
 100 650 l 1
 100 700 l 1
 250 800 l 1
 400 700 l 1
 400 650 l 1
EndSplineSet
Validated: 1
EndChar

StartChar: Edieresis
Encoding: 203 203 137
Width: 500
Flags: MW
LayerCount: 2
Fore
SplineSet
50 600 m 1
 150 600 l 1
 450 600 l 1
 450 500 l 1
 150 500 l 1
 150 400 l 1
 450 400 l 1
 450 300 l 1
 150 300 l 1
 150 100 l 1
 450 100 l 1
 450 0 l 1
 150 0 l 1
 50 0 l 1
 50 100 l 1
 50 300 l 1
 50 400 l 1
 50 500 l 1
 50 600 l 1
150 650 m 1
 150 700 l 1
 200 700 l 1
 200 650 l 1
 150 650 l 1
300 650 m 1
 300 700 l 1
 350 700 l 1
 350 650 l 1
 300 650 l 1
EndSplineSet
Validated: 1
EndChar

StartChar: Igrave
Encoding: 204 204 138
Width: 400
Flags: MW
LayerCount: 2
Fore
SplineSet
50 100 m 1
 150 100 l 1
 150 500 l 1
 50 500 l 1
 50 600 l 1
 150 600 l 1
 250 600 l 1
 350 600 l 1
 350 500 l 1
 250 500 l 1
 250 100 l 1
 350 100 l 1
 350 0 l 1
 250 0 l 1
 150 0 l 1
 50 0 l 1
 50 100 l 1
200 800 m 1
 250 650 l 1
 200 650 l 1
 150 800 l 1
 200 800 l 1
EndSplineSet
Validated: 1
EndChar

StartChar: Iacute
Encoding: 205 205 139
Width: 400
Flags: MW
LayerCount: 2
Fore
SplineSet
50 100 m 1
 150 100 l 1
 150 500 l 1
 50 500 l 1
 50 600 l 1
 150 600 l 1
 250 600 l 1
 350 600 l 1
 350 500 l 1
 250 500 l 1
 250 100 l 1
 350 100 l 1
 350 0 l 1
 250 0 l 1
 150 0 l 1
 50 0 l 1
 50 100 l 1
200 800 m 1
 250 800 l 1
 200 650 l 1
 150 650 l 1
 200 800 l 1
EndSplineSet
Validated: 1
EndChar

StartChar: Icircumflex
Encoding: 206 206 140
Width: 400
Flags: MW
LayerCount: 2
Fore
SplineSet
50 100 m 1
 150 100 l 1
 150 500 l 1
 50 500 l 1
 50 600 l 1
 150 600 l 1
 250 600 l 1
 350 600 l 1
 350 500 l 1
 250 500 l 1
 250 100 l 1
 350 100 l 1
 350 0 l 1
 250 0 l 1
 150 0 l 1
 50 0 l 1
 50 100 l 1
350 650 m 1
 200 750 l 1
 50 650 l 1
 50 700 l 1
 200 800 l 1
 350 700 l 1
 350 650 l 1
EndSplineSet
Validated: 1
EndChar

StartChar: Idieresis
Encoding: 207 207 141
Width: 400
Flags: MW
LayerCount: 2
Fore
SplineSet
50 100 m 1
 150 100 l 1
 150 500 l 1
 50 500 l 1
 50 600 l 1
 150 600 l 1
 250 600 l 1
 350 600 l 1
 350 500 l 1
 250 500 l 1
 250 100 l 1
 350 100 l 1
 350 0 l 1
 250 0 l 1
 150 0 l 1
 50 0 l 1
 50 100 l 1
100 650 m 1
 100 700 l 1
 150 700 l 1
 150 650 l 1
 100 650 l 1
250 650 m 1
 250 700 l 1
 300 700 l 1
 300 650 l 1
 250 650 l 1
EndSplineSet
Validated: 1
EndChar

StartChar: Eth
Encoding: 208 208 142
Width: 600
Flags: MW
LayerCount: 2
Fore
SplineSet
250 600 m 1
 550 600 l 1
 550 0 l 1
 50 0 l 1
 50 100 l 1
 150 100 l 1
 150 300 l 1
 50 300 l 1
 50 400 l 1
 150 400 l 1
 150 500 l 1
 50 500 l 1
 50 600 l 1
 250 600 l 1
450 100 m 1
 450 500 l 1
 250 500 l 1
 250 400 l 1
 350 400 l 1
 350 300 l 1
 250 300 l 1
 250 100 l 1
 450 100 l 1
EndSplineSet
Validated: 1
EndChar

StartChar: Ntilde
Encoding: 209 209 143
Width: 500
Flags: MW
LayerCount: 2
Fore
SplineSet
450 600 m 1
 450 0 l 1
 350 0 l 1
 350 300 l 1
 150 500 l 1
 150 0 l 1
 50 0 l 1
 50 600 l 1
 150 600 l 1
 350 400 l 1
 350 600 l 1
 450 600 l 1
450 700 m 1
 450 650 l 1
 400 650 l 1
 400 700 l 1
 50 700 l 1
 50 750 l 1
 50 800 l 1
 100 800 l 1
 100 750 l 1
 450 750 l 1
 450 700 l 1
EndSplineSet
Validated: 1
EndChar

StartChar: Ograve
Encoding: 210 210 144
Width: 500
Flags: MW
LayerCount: 2
Fore
SplineSet
350 0 m 1
 50 0 l 1
 50 600 l 1
 450 600 l 1
 450 0 l 1
 350 0 l 1
150 500 m 1
 150 100 l 1
 350 100 l 1
 350 500 l 1
 150 500 l 1
250 650 m 1
 200 800 l 1
 250 800 l 1
 300 650 l 1
 250 650 l 1
EndSplineSet
Validated: 1
EndChar

StartChar: Oacute
Encoding: 211 211 145
Width: 500
Flags: MW
LayerCount: 2
Fore
SplineSet
150 600 m 1
 450 600 l 1
 450 0 l 1
 50 0 l 1
 50 600 l 1
 150 600 l 1
350 100 m 1
 350 500 l 1
 150 500 l 1
 150 100 l 1
 350 100 l 1
250 800 m 1
 300 800 l 1
 250 650 l 1
 200 650 l 1
 250 800 l 1
EndSplineSet
Validated: 1
EndChar

StartChar: Ocircumflex
Encoding: 212 212 146
Width: 500
Flags: MW
LayerCount: 2
Fore
SplineSet
150 600 m 1
 450 600 l 1
 450 0 l 1
 50 0 l 1
 50 600 l 1
 150 600 l 1
350 100 m 1
 350 500 l 1
 150 500 l 1
 150 100 l 1
 350 100 l 1
400 650 m 1
 250 750 l 1
 100 650 l 1
 100 700 l 1
 250 800 l 1
 400 700 l 1
 400 650 l 1
EndSplineSet
Validated: 1
EndChar

StartChar: Otilde
Encoding: 213 213 147
Width: 500
Flags: MW
LayerCount: 2
Fore
SplineSet
150 600 m 1
 450 600 l 1
 450 0 l 1
 50 0 l 1
 50 600 l 1
 150 600 l 1
350 100 m 1
 350 500 l 1
 150 500 l 1
 150 100 l 1
 350 100 l 1
100 800 m 1
 100 750 l 1
 450 750 l 1
 450 700 l 1
 450 650 l 1
 400 650 l 1
 400 700 l 1
 50 700 l 1
 50 750 l 1
 50 800 l 1
 100 800 l 1
EndSplineSet
Validated: 1
EndChar

StartChar: Odieresis
Encoding: 214 214 148
Width: 500
Flags: MW
LayerCount: 2
Fore
SplineSet
150 600 m 1
 450 600 l 1
 450 0 l 1
 50 0 l 1
 50 600 l 1
 150 600 l 1
350 100 m 1
 350 500 l 1
 150 500 l 1
 150 100 l 1
 350 100 l 1
150 650 m 1
 150 700 l 1
 200 700 l 1
 200 650 l 1
 150 650 l 1
300 650 m 1
 300 700 l 1
 350 700 l 1
 350 650 l 1
 300 650 l 1
EndSplineSet
Validated: 1
EndChar

StartChar: multiply
Encoding: 215 215 149
Width: 400
Flags: MW
LayerCount: 2
Fore
SplineSet
150 100 m 1
 50 100 l 1
 150 250 l 1
 50 400 l 1
 150 400 l 1
 200 325 l 1
 250 400 l 1
 350 400 l 1
 250 250 l 1
 350 100 l 1
 250 100 l 1
 200 175 l 1
 150 100 l 1
EndSplineSet
Validated: 1
EndChar

StartChar: Oslash
Encoding: 216 216 150
Width: 500
Flags: MW
LayerCount: 2
Fore
SplineSet
150 600 m 1
 450 600 l 1
 450 0 l 1
 50 0 l 1
 50 600 l 1
 150 600 l 1
300 500 m 1
 150 500 l 1
 150 200 l 1
 300 500 l 1
200 100 m 1
 350 100 l 1
 350 400 l 1
 200 100 l 1
EndSplineSet
Validated: 1
EndChar

StartChar: Ugrave
Encoding: 217 217 151
Width: 500
Flags: MW
LayerCount: 2
Fore
SplineSet
350 100 m 1
 350 600 l 1
 450 600 l 1
 450 100 l 1
 450 0 l 1
 350 0 l 1
 150 0 l 1
 50 0 l 1
 50 100 l 1
 50 600 l 1
 150 600 l 1
 150 100 l 1
 350 100 l 1
250 650 m 1
 200 800 l 1
 250 800 l 1
 300 650 l 1
 250 650 l 1
EndSplineSet
Validated: 1
EndChar

StartChar: Uacute
Encoding: 218 218 152
Width: 500
Flags: MW
LayerCount: 2
Fore
SplineSet
350 100 m 1
 350 600 l 1
 450 600 l 1
 450 100 l 1
 450 0 l 1
 350 0 l 1
 150 0 l 1
 50 0 l 1
 50 100 l 1
 50 600 l 1
 150 600 l 1
 150 100 l 1
 350 100 l 1
250 800 m 1
 300 800 l 1
 250 650 l 1
 200 650 l 1
 250 800 l 1
EndSplineSet
Validated: 1
EndChar

StartChar: Ucircumflex
Encoding: 219 219 153
Width: 500
Flags: MW
LayerCount: 2
Fore
SplineSet
350 100 m 1
 350 600 l 1
 450 600 l 1
 450 0 l 1
 350 0 l 1
 150 0 l 1
 50 0 l 1
 50 100 l 1
 50 600 l 1
 150 600 l 1
 150 100 l 1
 350 100 l 1
100 700 m 1
 250 800 l 1
 400 700 l 1
 400 650 l 1
 250 750 l 1
 100 650 l 1
 100 700 l 1
EndSplineSet
Validated: 1
EndChar

StartChar: Udieresis
Encoding: 220 220 154
Width: 500
Flags: MW
LayerCount: 2
Fore
SplineSet
50 0 m 1
 50 100 l 1
 50 600 l 1
 150 600 l 1
 150 100 l 1
 350 100 l 1
 350 600 l 1
 450 600 l 1
 450 0 l 1
 350 0 l 1
 150 0 l 1
 50 0 l 1
150 650 m 1
 150 700 l 1
 200 700 l 1
 200 650 l 1
 150 650 l 1
300 650 m 1
 300 700 l 1
 350 700 l 1
 350 650 l 1
 300 650 l 1
EndSplineSet
Validated: 1
EndChar

StartChar: Yacute
Encoding: 221 221 155
Width: 500
Flags: MW
LayerCount: 2
Fore
SplineSet
350 400 m 1
 350 600 l 1
 450 600 l 1
 450 400 l 1
 450 300 l 1
 350 300 l 1
 300 300 l 1
 300 0 l 1
 200 0 l 1
 200 300 l 1
 150 300 l 1
 50 300 l 1
 50 400 l 1
 50 600 l 1
 150 600 l 1
 150 400 l 1
 200 400 l 1
 300 400 l 1
 350 400 l 1
250 800 m 1
 300 800 l 1
 250 650 l 1
 200 650 l 1
 250 800 l 1
EndSplineSet
Validated: 1
EndChar

StartChar: Thorn
Encoding: 222 222 156
Width: 500
Flags: MW
LayerCount: 2
Fore
SplineSet
150 500 m 1
 450 500 l 1
 450 100 l 1
 150 100 l 1
 150 0 l 1
 50 0 l 1
 50 600 l 1
 150 600 l 1
 150 500 l 1
350 200 m 1
 350 400 l 1
 150 400 l 1
 150 200 l 1
 350 200 l 1
EndSplineSet
Validated: 1
EndChar

StartChar: germandbls
Encoding: 223 223 157
Width: 500
Flags: MW
LayerCount: 2
Fore
SplineSet
350 500 m 1
 350 400 l 1
 450 400 l 1
 450 300 l 1
 450 100 l 1
 450 0 l 1
 350 0 l 1
 200 0 l 1
 200 100 l 1
 350 100 l 1
 350 300 l 1
 250 300 l 1
 200 300 l 1
 200 400 l 1
 250 400 l 1
 250 500 l 1
 150 500 l 1
 150 0 l 1
 50 0 l 1
 50 500 l 1
 50 600 l 1
 150 600 l 1
 250 600 l 1
 350 600 l 1
 350 500 l 1
EndSplineSet
Validated: 1
EndChar

StartChar: agrave
Encoding: 224 224 158
Width: 500
Flags: MW
LayerCount: 2
Fore
SplineSet
50 400 m 1
 450 400 l 1
 450 0 l 1
 50 0 l 1
 50 250 l 1
 350 250 l 1
 350 300 l 1
 50 300 l 1
 50 400 l 1
350 100 m 1
 350 150 l 1
 150 150 l 1
 150 100 l 1
 350 100 l 1
250 600 m 1
 300 450 l 1
 250 450 l 1
 200 600 l 1
 250 600 l 1
EndSplineSet
Validated: 1
EndChar

StartChar: aacute
Encoding: 225 225 159
Width: 500
Flags: MW
LayerCount: 2
Fore
SplineSet
50 400 m 1
 450 400 l 1
 450 0 l 1
 50 0 l 1
 50 250 l 1
 350 250 l 1
 350 300 l 1
 50 300 l 1
 50 400 l 1
350 100 m 1
 350 150 l 1
 150 150 l 1
 150 100 l 1
 350 100 l 1
250 450 m 1
 200 450 l 1
 250 600 l 1
 300 600 l 1
 250 450 l 1
EndSplineSet
Validated: 1
EndChar

StartChar: acircumflex
Encoding: 226 226 160
Width: 500
Flags: MW
LayerCount: 2
Fore
SplineSet
50 400 m 1
 450 400 l 1
 450 0 l 1
 50 0 l 1
 50 250 l 1
 350 250 l 1
 350 300 l 1
 50 300 l 1
 50 400 l 1
350 100 m 1
 350 150 l 1
 150 150 l 1
 150 100 l 1
 350 100 l 1
400 500 m 1
 400 450 l 1
 250 550 l 1
 100 450 l 1
 100 500 l 1
 250 600 l 1
 400 500 l 1
EndSplineSet
Validated: 1
EndChar

StartChar: atilde
Encoding: 227 227 161
Width: 500
Flags: MW
LayerCount: 2
Fore
SplineSet
50 400 m 1
 450 400 l 1
 450 0 l 1
 50 0 l 1
 50 250 l 1
 350 250 l 1
 350 300 l 1
 50 300 l 1
 50 400 l 1
350 100 m 1
 350 150 l 1
 150 150 l 1
 150 100 l 1
 350 100 l 1
100 600 m 1
 100 550 l 1
 450 550 l 1
 450 500 l 1
 450 450 l 1
 400 450 l 1
 400 500 l 1
 50 500 l 1
 50 550 l 1
 50 600 l 1
 100 600 l 1
EndSplineSet
Validated: 1
EndChar

StartChar: adieresis
Encoding: 228 228 162
Width: 500
Flags: MW
LayerCount: 2
Fore
SplineSet
50 400 m 1
 450 400 l 1
 450 0 l 1
 50 0 l 1
 50 250 l 1
 350 250 l 1
 350 300 l 1
 50 300 l 1
 50 400 l 1
350 100 m 1
 350 150 l 1
 150 150 l 1
 150 100 l 1
 350 100 l 1
150 450 m 1
 150 500 l 1
 200 500 l 1
 200 450 l 1
 150 450 l 1
300 450 m 1
 300 500 l 1
 350 500 l 1
 350 450 l 1
 300 450 l 1
EndSplineSet
Validated: 1
EndChar

StartChar: aring
Encoding: 229 229 163
Width: 500
Flags: MW
LayerCount: 2
Fore
SplineSet
50 400 m 1
 450 400 l 1
 450 0 l 1
 50 0 l 1
 50 250 l 1
 350 250 l 1
 350 300 l 1
 50 300 l 1
 50 400 l 1
350 100 m 1
 350 150 l 1
 150 150 l 1
 150 100 l 1
 350 100 l 1
325 450 m 1
 175 450 l 1
 175 600 l 1
 325 600 l 1
 325 450 l 1
225 500 m 1
 275 500 l 1
 275 550 l 1
 225 550 l 1
 225 500 l 1
EndSplineSet
Validated: 1
EndChar

StartChar: ae
Encoding: 230 230 164
Width: 850
Flags: MW
LayerCount: 2
Fore
SplineSet
675 400 m 1
 775 400 l 1
 775 150 l 1
 475 150 l 1
 475 100 l 1
 775 100 l 1
 775 0 l 1
 75 0 l 1
 75 250 l 1
 375 250 l 1
 375 300 l 1
 75 300 l 1
 75 400 l 1
 675 400 l 1
375 100 m 1
 375 150 l 1
 175 150 l 1
 175 100 l 1
 375 100 l 1
675 250 m 1
 675 300 l 1
 475 300 l 1
 475 250 l 1
 675 250 l 1
EndSplineSet
Validated: 1
EndChar

StartChar: ccedilla
Encoding: 231 231 165
Width: 500
Flags: MW
LayerCount: 2
Fore
SplineSet
50 400 m 1
 150 400 l 1
 450 400 l 1
 450 300 l 1
 150 300 l 1
 150 100 l 1
 450 100 l 1
 450 0 l 1
 275 0 l 1
 275 -100 l 1
 225 -100 l 1
 225 0 l 1
 150 0 l 1
 50 0 l 1
 50 100 l 1
 50 300 l 1
 50 400 l 1
EndSplineSet
Validated: 1
EndChar

StartChar: egrave
Encoding: 232 232 166
Width: 500
Flags: MW
LayerCount: 2
Fore
SplineSet
150 400 m 1
 450 400 l 1
 450 150 l 1
 150 150 l 1
 150 100 l 1
 450 100 l 1
 450 0 l 1
 50 0 l 1
 50 400 l 1
 150 400 l 1
350 250 m 1
 350 300 l 1
 150 300 l 1
 150 250 l 1
 350 250 l 1
250 600 m 1
 300 450 l 1
 250 450 l 1
 200 600 l 1
 250 600 l 1
EndSplineSet
Validated: 1
EndChar

StartChar: eacute
Encoding: 233 233 167
Width: 500
Flags: MW
LayerCount: 2
Fore
SplineSet
150 400 m 1
 450 400 l 1
 450 150 l 1
 150 150 l 1
 150 100 l 1
 450 100 l 1
 450 0 l 1
 50 0 l 1
 50 400 l 1
 150 400 l 1
350 250 m 1
 350 300 l 1
 150 300 l 1
 150 250 l 1
 350 250 l 1
250 600 m 1
 300 600 l 1
 250 450 l 1
 200 450 l 1
 250 600 l 1
EndSplineSet
Validated: 1
EndChar

StartChar: ecircumflex
Encoding: 234 234 168
Width: 500
Flags: MW
LayerCount: 2
Fore
SplineSet
150 400 m 1
 450 400 l 1
 450 150 l 1
 150 150 l 1
 150 100 l 1
 450 100 l 1
 450 0 l 1
 50 0 l 1
 50 400 l 1
 150 400 l 1
350 250 m 1
 350 300 l 1
 150 300 l 1
 150 250 l 1
 350 250 l 1
400 450 m 1
 250 550 l 1
 100 450 l 1
 100 500 l 1
 250 600 l 1
 400 500 l 1
 400 450 l 1
EndSplineSet
Validated: 1
EndChar

StartChar: edieresis
Encoding: 235 235 169
Width: 500
Flags: MW
LayerCount: 2
Fore
SplineSet
150 400 m 1
 450 400 l 1
 450 150 l 1
 150 150 l 1
 150 100 l 1
 450 100 l 1
 450 0 l 1
 50 0 l 1
 50 400 l 1
 150 400 l 1
350 250 m 1
 350 300 l 1
 150 300 l 1
 150 250 l 1
 350 250 l 1
150 450 m 1
 150 500 l 1
 200 500 l 1
 200 450 l 1
 150 450 l 1
300 450 m 1
 300 500 l 1
 350 500 l 1
 350 450 l 1
 300 450 l 1
EndSplineSet
Validated: 1
EndChar

StartChar: igrave
Encoding: 236 236 170
Width: 200
Flags: MW
LayerCount: 2
Fore
SplineSet
50 0 m 1
 50 400 l 1
 150 400 l 1
 150 0 l 1
 50 0 l 1
100 600 m 1
 150 450 l 1
 100 450 l 1
 50 600 l 1
 100 600 l 1
EndSplineSet
Validated: 1
EndChar

StartChar: iacute
Encoding: 237 237 171
Width: 200
Flags: MW
LayerCount: 2
Fore
SplineSet
50 0 m 1
 50 400 l 1
 150 400 l 1
 150 0 l 1
 50 0 l 1
100 600 m 1
 150 600 l 1
 100 450 l 1
 50 450 l 1
 100 600 l 1
EndSplineSet
Validated: 1
EndChar

StartChar: icircumflex
Encoding: 238 238 172
Width: 300
Flags: MW
LayerCount: 2
Fore
SplineSet
100 0 m 1
 100 400 l 1
 200 400 l 1
 200 0 l 1
 100 0 l 1
300 500 m 1
 300 450 l 1
 150 550 l 1
 0 450 l 1
 0 500 l 1
 150 600 l 1
 300 500 l 1
EndSplineSet
Validated: 1
EndChar

StartChar: idieresis
Encoding: 239 239 173
Width: 300
Flags: MW
LayerCount: 2
Fore
SplineSet
100 0 m 1
 100 400 l 1
 200 400 l 1
 200 0 l 1
 100 0 l 1
50 450 m 1
 50 500 l 1
 100 500 l 1
 100 450 l 1
 50 450 l 1
200 450 m 1
 200 500 l 1
 250 500 l 1
 250 450 l 1
 200 450 l 1
EndSplineSet
Validated: 1
EndChar

StartChar: eth
Encoding: 240 240 174
Width: 600
Flags: MW
LayerCount: 2
Fore
SplineSet
450 600 m 1
 450 550 l 1
 550 550 l 1
 550 450 l 1
 450 450 l 1
 450 0 l 1
 50 0 l 1
 50 400 l 1
 350 400 l 1
 350 450 l 1
 250 450 l 1
 250 550 l 1
 350 550 l 1
 350 600 l 1
 450 600 l 1
350 100 m 1
 350 300 l 1
 150 300 l 1
 150 100 l 1
 350 100 l 1
EndSplineSet
Validated: 1
EndChar

StartChar: ntilde
Encoding: 241 241 175
Width: 500
Flags: MW
LayerCount: 2
Fore
SplineSet
150 400 m 1
 350 400 l 1
 450 400 l 1
 450 300 l 1
 450 0 l 1
 350 0 l 1
 350 300 l 1
 150 300 l 1
 150 0 l 1
 50 0 l 1
 50 300 l 1
 50 400 l 1
 150 400 l 1
100 600 m 1
 100 550 l 1
 450 550 l 1
 450 500 l 1
 450 450 l 1
 400 450 l 1
 400 500 l 1
 50 500 l 1
 50 550 l 1
 50 600 l 1
 100 600 l 1
EndSplineSet
Validated: 1
EndChar

StartChar: ograve
Encoding: 242 242 176
Width: 500
Flags: MW
LayerCount: 2
Fore
SplineSet
150 400 m 1
 450 400 l 1
 450 0 l 1
 50 0 l 1
 50 400 l 1
 150 400 l 1
350 100 m 1
 350 300 l 1
 150 300 l 1
 150 100 l 1
 350 100 l 1
250 600 m 1
 300 450 l 1
 250 450 l 1
 200 600 l 1
 250 600 l 1
EndSplineSet
Validated: 1
EndChar

StartChar: oacute
Encoding: 243 243 177
Width: 500
Flags: MW
LayerCount: 2
Fore
SplineSet
150 400 m 1
 450 400 l 1
 450 0 l 1
 50 0 l 1
 50 400 l 1
 150 400 l 1
350 100 m 1
 350 300 l 1
 150 300 l 1
 150 100 l 1
 350 100 l 1
250 600 m 1
 300 600 l 1
 250 450 l 1
 200 450 l 1
 250 600 l 1
EndSplineSet
Validated: 1
EndChar

StartChar: ocircumflex
Encoding: 244 244 178
Width: 500
Flags: MW
LayerCount: 2
Fore
SplineSet
150 400 m 1
 450 400 l 1
 450 0 l 1
 50 0 l 1
 50 400 l 1
 150 400 l 1
350 100 m 1
 350 300 l 1
 150 300 l 1
 150 100 l 1
 350 100 l 1
400 450 m 1
 250 550 l 1
 100 450 l 1
 100 500 l 1
 250 600 l 1
 400 500 l 1
 400 450 l 1
EndSplineSet
Validated: 1
EndChar

StartChar: otilde
Encoding: 245 245 179
Width: 500
Flags: MW
LayerCount: 2
Fore
SplineSet
150 400 m 1
 450 400 l 1
 450 0 l 1
 50 0 l 1
 50 400 l 1
 150 400 l 1
350 100 m 1
 350 300 l 1
 150 300 l 1
 150 100 l 1
 350 100 l 1
100 600 m 1
 100 550 l 1
 450 550 l 1
 450 500 l 1
 450 450 l 1
 400 450 l 1
 400 500 l 1
 50 500 l 1
 50 550 l 1
 50 600 l 1
 100 600 l 1
EndSplineSet
Validated: 1
EndChar

StartChar: odieresis
Encoding: 246 246 180
Width: 500
Flags: MW
LayerCount: 2
Fore
SplineSet
150 400 m 1
 450 400 l 1
 450 0 l 1
 50 0 l 1
 50 400 l 1
 150 400 l 1
350 100 m 1
 350 300 l 1
 150 300 l 1
 150 100 l 1
 350 100 l 1
150 450 m 1
 150 500 l 1
 200 500 l 1
 200 450 l 1
 150 450 l 1
300 450 m 1
 300 500 l 1
 350 500 l 1
 350 450 l 1
 300 450 l 1
EndSplineSet
Validated: 1
EndChar

StartChar: divide
Encoding: 247 247 181
Width: 400
Flags: MW
LayerCount: 2
Fore
SplineSet
175 350 m 1
 175 400 l 1
 225 400 l 1
 225 350 l 1
 175 350 l 1
175 100 m 1
 175 150 l 1
 225 150 l 1
 225 100 l 1
 175 100 l 1
50 200 m 1
 50 300 l 1
 350 300 l 1
 350 200 l 1
 50 200 l 1
EndSplineSet
Validated: 1
EndChar

StartChar: oslash
Encoding: 248 248 182
Width: 500
Flags: MW
LayerCount: 2
Fore
SplineSet
150 400 m 1
 450 400 l 1
 450 0 l 1
 50 0 l 1
 50 400 l 1
 150 400 l 1
275 300 m 1
 150 300 l 1
 150 133.330078125 l 1
 275 300 l 1
225 100 m 1
 350 100 l 1
 350 266.669921875 l 1
 225 100 l 1
EndSplineSet
Validated: 1
EndChar

StartChar: ugrave
Encoding: 249 249 183
Width: 500
Flags: MW
LayerCount: 2
Fore
SplineSet
350 100 m 1
 350 400 l 1
 450 400 l 1
 450 100 l 1
 450 0 l 1
 350 0 l 1
 150 0 l 1
 50 0 l 1
 50 100 l 1
 50 400 l 1
 150 400 l 1
 150 100 l 1
 350 100 l 1
250 450 m 1
 200 600 l 1
 250 600 l 1
 300 450 l 1
 250 450 l 1
EndSplineSet
Validated: 1
EndChar

StartChar: uacute
Encoding: 250 250 184
Width: 500
Flags: MW
LayerCount: 2
Fore
SplineSet
350 100 m 1
 350 400 l 1
 450 400 l 1
 450 100 l 1
 450 0 l 1
 350 0 l 1
 150 0 l 1
 50 0 l 1
 50 100 l 1
 50 400 l 1
 150 400 l 1
 150 100 l 1
 350 100 l 1
250 600 m 1
 300 600 l 1
 250 450 l 1
 200 450 l 1
 250 600 l 1
EndSplineSet
Validated: 1
EndChar

StartChar: ucircumflex
Encoding: 251 251 185
Width: 500
Flags: MW
LayerCount: 2
Fore
SplineSet
350 100 m 1
 350 400 l 1
 450 400 l 1
 450 100 l 1
 450 0 l 1
 350 0 l 1
 150 0 l 1
 50 0 l 1
 50 100 l 1
 50 400 l 1
 150 400 l 1
 150 100 l 1
 350 100 l 1
400 450 m 1
 250 550 l 1
 100 450 l 1
 100 500 l 1
 250 600 l 1
 400 500 l 1
 400 450 l 1
EndSplineSet
Validated: 1
EndChar

StartChar: udieresis
Encoding: 252 252 186
Width: 500
Flags: MW
LayerCount: 2
Fore
SplineSet
350 100 m 1
 350 400 l 1
 450 400 l 1
 450 100 l 1
 450 0 l 1
 350 0 l 1
 150 0 l 1
 50 0 l 1
 50 100 l 1
 50 400 l 1
 150 400 l 1
 150 100 l 1
 350 100 l 1
150 450 m 1
 150 500 l 1
 200 500 l 1
 200 450 l 1
 150 450 l 1
300 450 m 1
 300 500 l 1
 350 500 l 1
 350 450 l 1
 300 450 l 1
EndSplineSet
Validated: 1
EndChar

StartChar: yacute
Encoding: 253 253 187
Width: 500
Flags: MW
LayerCount: 2
Fore
SplineSet
350 100 m 1
 350 400 l 1
 450 400 l 1
 450 100 l 1
 450 0 l 1
 450 -100 l 1
 450 -200 l 1
 350 -200 l 1
 50 -200 l 1
 50 -100 l 1
 350 -100 l 1
 350 0 l 1
 150 0 l 1
 50 0 l 1
 50 100 l 1
 50 400 l 1
 150 400 l 1
 150 100 l 1
 350 100 l 1
250 600 m 1
 300 600 l 1
 250 450 l 1
 200 450 l 1
 250 600 l 1
EndSplineSet
Validated: 1
EndChar

StartChar: thorn
Encoding: 254 254 188
Width: 500
Flags: MW
LayerCount: 2
Fore
SplineSet
150 400 m 1
 450 400 l 1
 450 0 l 1
 150 0 l 1
 150 -200 l 1
 50 -200 l 1
 50 600 l 1
 150 600 l 1
 150 400 l 1
350 100 m 1
 350 300 l 1
 150 300 l 1
 150 100 l 1
 350 100 l 1
EndSplineSet
Validated: 1
EndChar

StartChar: ydieresis
Encoding: 255 255 189
Width: 500
Flags: MW
LayerCount: 2
Fore
SplineSet
350 100 m 1
 350 400 l 1
 450 400 l 1
 450 100 l 1
 450 0 l 1
 450 -100 l 1
 450 -200 l 1
 350 -200 l 1
 50 -200 l 1
 50 -100 l 1
 350 -100 l 1
 350 0 l 1
 150 0 l 1
 50 0 l 1
 50 100 l 1
 50 400 l 1
 150 400 l 1
 150 100 l 1
 350 100 l 1
150 450 m 1
 150 500 l 1
 200 500 l 1
 200 450 l 1
 150 450 l 1
300 450 m 1
 300 500 l 1
 350 500 l 1
 350 450 l 1
 300 450 l 1
EndSplineSet
Validated: 1
EndChar
